<svg width="404" height="361" viewBox="0 0 404 361" fill="none" xmlns="http://www.w3.org/2000/svg">
<ellipse cx="100.24" cy="127.198" rx="38.0896" ry="32.4276" fill="white"/>
<ellipse cx="100.24" cy="226.024" rx="38.0896" ry="32.4276" fill="white"/>
<ellipse cx="303.041" cy="134.404" rx="38.0896" ry="32.4276" fill="white"/>
<ellipse cx="302.011" cy="223.967" rx="38.0896" ry="32.4276" fill="white"/>
<path d="M141.454 124.976C108.94 83.9247 75.7242 107.871 63.1807 124.976C71.5953 135.134 82.3645 146.859 99.1774 147.698C111.746 148.324 129.765 143.201 141.454 124.976Z" fill="black" stroke="black" stroke-width="4.62688"/>
<path d="M342.196 229.646C309.681 188.595 276.465 212.541 263.922 229.646C272.336 239.804 283.106 251.529 299.919 252.368C312.487 252.994 330.506 247.871 342.196 229.646Z" fill="black" stroke="black" stroke-width="4.62688"/>
<path d="M141.454 222.44C108.94 181.389 75.7242 205.335 63.1807 222.44C71.5953 232.598 82.3645 244.323 99.1774 245.162C111.746 245.788 129.765 240.665 141.454 222.44Z" stroke="black" stroke-width="4.62688"/>
<path d="M342.196 131.849C309.681 90.7977 276.465 114.744 263.922 131.849C272.336 142.007 283.106 153.732 299.919 154.571C312.487 155.197 330.506 150.074 342.196 131.849Z" stroke="black" stroke-width="4.62688"/>
<path d="M342.196 117.437C309.681 76.3856 276.465 100.332 263.922 117.437C272.336 127.595 283.106 139.32 299.919 140.159C312.487 140.785 330.506 135.662 342.196 117.437Z" stroke="black" stroke-width="4.62688"/>
<path d="M141.454 238.912C108.94 197.86 75.7242 221.807 63.1807 238.912C71.5953 249.07 82.3645 260.795 99.1774 261.633C111.746 262.26 129.765 257.137 141.454 238.912Z" stroke="black" stroke-width="4.62688"/>
<ellipse cx="102.813" cy="115.359" rx="16.9859" ry="16.4712" fill="white"/>
<ellipse cx="303.555" cy="239.922" rx="16.9859" ry="16.4712" fill="white"/>
<path d="M100.901 291.02C84.0599 291.02 69.0158 288.342 55.7686 282.987C42.5918 277.561 32.2336 270.233 24.6939 261.002C17.2247 251.701 13.4901 241.202 13.4901 229.505C13.4901 220.556 15.6393 212.347 19.9376 204.878C24.2359 197.408 30.0492 191.208 37.3774 186.275C44.7762 181.272 53.0205 178.066 62.1103 176.657V174.966C50.2019 172.781 40.4426 167.25 32.8325 158.371C25.2929 149.493 21.523 139.099 21.523 127.191C21.523 115.917 24.9405 105.876 31.7755 97.0676C38.681 88.2596 48.088 81.3189 59.9964 76.2454C71.9753 71.172 85.6101 68.6353 100.901 68.6353C116.192 68.6353 129.791 71.172 141.7 76.2454C153.678 81.3189 163.085 88.2596 169.92 97.0676C176.826 105.876 180.279 115.917 180.279 127.191C180.279 139.17 176.438 149.599 168.758 158.477C161.148 167.285 151.459 172.781 139.691 174.966V176.657C148.711 178.066 156.885 181.272 164.213 186.275C171.612 191.208 177.46 197.408 181.758 204.878C186.127 212.347 188.312 220.556 188.312 229.505C188.312 241.202 184.542 251.701 177.002 261.002C169.462 270.233 159.104 277.561 145.927 282.987C132.821 288.342 117.812 291.02 100.901 291.02ZM100.901 253.921C107.313 253.921 112.95 252.723 117.812 250.327C122.674 247.861 126.479 244.443 129.227 240.074C132.046 235.706 133.455 230.773 133.455 225.277C133.455 219.64 132.046 214.637 129.227 210.268C126.409 205.899 122.533 202.482 117.601 200.016C112.739 197.479 107.172 196.211 100.901 196.211C94.7 196.211 89.1333 197.479 84.2008 200.016C79.2684 202.482 75.3928 205.899 72.5743 210.268C69.7557 214.637 68.3464 219.64 68.3464 225.277C68.3464 230.773 69.7205 235.706 72.4686 240.074C75.2871 244.373 79.1274 247.755 83.9895 250.221C88.9219 252.688 94.5591 253.921 100.901 253.921ZM100.901 159.323C106.397 159.323 111.259 158.195 115.487 155.94C119.785 153.685 123.132 150.55 125.528 146.533C127.994 142.517 129.227 137.972 129.227 132.899C129.227 127.825 127.994 123.351 125.528 119.475C123.132 115.6 119.82 112.57 115.593 110.385C111.365 108.13 106.468 107.003 100.901 107.003C95.4046 107.003 90.5074 108.13 86.2091 110.385C81.9108 112.57 78.5637 115.6 76.1679 119.475C73.7722 123.351 72.5743 127.825 72.5743 132.899C72.5743 137.972 73.7722 142.517 76.1679 146.533C78.6342 150.479 82.0165 153.615 86.3148 155.94C90.6131 158.195 95.4751 159.323 100.901 159.323ZM302.041 291.02C285.2 291.02 270.156 288.342 256.908 282.987C243.732 277.561 233.373 270.233 225.834 261.002C218.364 251.701 214.63 241.202 214.63 229.505C214.63 220.556 216.779 212.347 221.077 204.878C225.376 197.408 231.189 191.208 238.517 186.275C245.916 181.272 254.16 178.066 263.25 176.657V174.966C251.342 172.781 241.582 167.25 233.972 158.371C226.433 149.493 222.663 139.099 222.663 127.191C222.663 115.917 226.08 105.876 232.915 97.0676C239.821 88.2596 249.228 81.3189 261.136 76.2454C273.115 71.172 286.75 68.6353 302.041 68.6353C317.331 68.6353 330.931 71.172 342.839 76.2454C354.818 81.3189 364.225 88.2596 371.06 97.0676C377.966 105.876 381.418 115.917 381.418 127.191C381.418 139.17 377.578 149.599 369.898 158.477C362.287 167.285 352.599 172.781 340.831 174.966V176.657C349.851 178.066 358.024 181.272 365.353 186.275C372.751 191.208 378.6 197.408 382.898 204.878C387.267 212.347 389.451 220.556 389.451 229.505C389.451 241.202 385.682 251.701 378.142 261.002C370.602 270.233 360.244 277.561 347.067 282.987C333.961 288.342 318.952 291.02 302.041 291.02ZM302.041 253.921C308.453 253.921 314.09 252.723 318.952 250.327C323.814 247.861 327.619 244.443 330.367 240.074C333.186 235.706 334.595 230.773 334.595 225.277C334.595 219.64 333.186 214.637 330.367 210.268C327.549 205.899 323.673 202.482 318.741 200.016C313.879 197.479 308.312 196.211 302.041 196.211C295.84 196.211 290.273 197.479 285.341 200.016C280.408 202.482 276.533 205.899 273.714 210.268C270.895 214.637 269.486 219.64 269.486 225.277C269.486 230.773 270.86 235.706 273.608 240.074C276.427 244.373 280.267 247.755 285.129 250.221C290.062 252.688 295.699 253.921 302.041 253.921ZM302.041 159.323C307.537 159.323 312.399 158.195 316.627 155.94C320.925 153.685 324.272 150.55 326.668 146.533C329.134 142.517 330.367 137.972 330.367 132.899C330.367 127.825 329.134 123.351 326.668 119.475C324.272 115.6 320.96 112.57 316.732 110.385C312.505 108.13 307.607 107.003 302.041 107.003C296.544 107.003 291.647 108.13 287.349 110.385C283.051 112.57 279.704 115.6 277.308 119.475C274.912 123.351 273.714 127.825 273.714 132.899C273.714 137.972 274.912 142.517 277.308 146.533C279.774 150.479 283.156 153.615 287.455 155.94C291.753 158.195 296.615 159.323 302.041 159.323Z" fill="white"/>
<ellipse cx="100.24" cy="127.198" rx="38.0896" ry="32.4276" fill="white"/>
<ellipse cx="100.24" cy="226.024" rx="38.0896" ry="32.4276" fill="white"/>
<ellipse cx="303.041" cy="134.404" rx="38.0896" ry="32.4276" fill="white"/>
<ellipse cx="302.011" cy="223.967" rx="38.0896" ry="32.4276" fill="white"/>
<path d="M141.454 124.976C108.94 83.9247 75.7242 107.871 63.1807 124.976C71.5953 135.134 82.3645 146.859 99.1774 147.698C111.746 148.324 129.765 143.201 141.454 124.976Z" fill="black" stroke="black" stroke-width="4.62688"/>
<path d="M342.196 229.646C309.681 188.595 276.465 212.541 263.922 229.646C272.336 239.804 283.106 251.529 299.919 252.368C312.487 252.994 330.506 247.871 342.196 229.646Z" fill="black" stroke="black" stroke-width="4.62688"/>
<path d="M141.454 222.44C108.94 181.389 75.7242 205.335 63.1807 222.44C71.5953 232.598 82.3645 244.323 99.1774 245.162C111.746 245.788 129.765 240.665 141.454 222.44Z" stroke="black" stroke-width="4.62688"/>
<path d="M342.196 131.849C309.681 90.7977 276.465 114.744 263.922 131.849C272.336 142.007 283.106 153.732 299.919 154.571C312.487 155.197 330.506 150.074 342.196 131.849Z" stroke="black" stroke-width="4.62688"/>
<path d="M342.196 117.437C309.681 76.3856 276.465 100.332 263.922 117.437C272.336 127.595 283.106 139.32 299.919 140.159C312.487 140.785 330.506 135.662 342.196 117.437Z" stroke="black" stroke-width="4.62688"/>
<path d="M141.454 238.912C108.94 197.86 75.7242 221.807 63.1807 238.912C71.5953 249.07 82.3645 260.795 99.1774 261.633C111.746 262.26 129.765 257.137 141.454 238.912Z" stroke="black" stroke-width="4.62688"/>
<ellipse cx="102.813" cy="115.359" rx="16.9859" ry="16.4712" fill="white"/>
<ellipse cx="303.555" cy="239.922" rx="16.9859" ry="16.4712" fill="white"/>
</svg>
