<svg width="1440" height="78" viewBox="0 0 1440 78" fill="none" xmlns="http://www.w3.org/2000/svg">
<ellipse cx="64.371" cy="45.6717" rx="27.576" ry="27.2713" fill="white"/>
<path d="M122.779 38.9705C74.2698 -22.2757 24.7141 13.4513 6 38.9705C18.554 54.1255 34.621 71.6186 59.7047 72.8693C78.4564 73.8042 105.339 66.1608 122.779 38.9705Z" stroke="white" stroke-width="8.31106"/>
<ellipse cx="204.389" cy="45.6717" rx="27.576" ry="27.2713" fill="white"/>
<path d="M262.792 38.8172C214.282 -22.429 164.727 13.2979 146.013 38.8172C158.567 53.9721 174.634 71.4653 199.717 72.7159C218.469 73.6509 245.352 66.0074 262.792 38.8172Z" stroke="white" stroke-width="8.31106"/>
<ellipse cx="64.371" cy="45.6717" rx="27.576" ry="27.2713" fill="#FF007F"/>
<path d="M122.779 38.9705C74.2698 -22.2757 24.7141 13.4513 6 38.9705C18.554 54.1255 34.621 71.6186 59.7047 72.8693C78.4564 73.8042 105.339 66.1608 122.779 38.9705Z" stroke="#FF007F" stroke-width="8.31106"/>
<ellipse cx="204.389" cy="45.6717" rx="27.576" ry="27.2713" fill="#FF007F"/>
<path d="M262.792 38.8172C214.282 -22.429 164.727 13.2979 146.013 38.8172C158.567 53.9721 174.634 71.4653 199.717 72.7159C218.469 73.6509 245.352 66.0074 262.792 38.8172Z" stroke="#FF007F" stroke-width="8.31106"/>
<path d="M417.692 38.9705C369.182 -22.2757 319.627 13.4513 300.913 38.9705C313.467 54.1255 329.534 71.6186 354.617 72.8693C373.369 73.8042 400.252 66.1608 417.692 38.9705Z" stroke="white" stroke-width="8.31106"/>
<path d="M557.705 38.8172C509.195 -22.429 459.639 13.2979 440.925 38.8172C453.479 53.9721 469.546 71.4653 494.63 72.7159C513.382 73.6509 540.264 66.0074 557.705 38.8172Z" stroke="white" stroke-width="8.31106"/>
<path d="M417.692 38.9705C369.182 -22.2757 319.627 13.4513 300.913 38.9705C313.467 54.1255 329.534 71.6186 354.617 72.8693C373.369 73.8042 400.252 66.1608 417.692 38.9705Z" stroke="white" stroke-width="8.31106"/>
<path d="M557.705 38.8172C509.195 -22.429 459.639 13.2979 440.925 38.8172C453.479 53.9721 469.546 71.4653 494.63 72.7159C513.382 73.6509 540.264 66.0074 557.705 38.8172Z" stroke="white" stroke-width="8.31106"/>
<path d="M1294.54 38.9705C1246.04 -22.2757 1196.48 13.4513 1177.77 38.9705C1190.32 54.1255 1206.39 71.6186 1231.47 72.8693C1250.22 73.8042 1277.1 66.1608 1294.54 38.9705Z" stroke="#FF007F" stroke-width="8.31106"/>
<path d="M1434.56 38.8172C1386.05 -22.429 1336.49 13.2979 1317.78 38.8172C1330.33 53.9721 1346.4 71.4653 1371.48 72.7159C1390.24 73.6509 1417.12 66.0074 1434.56 38.8172Z" stroke="#FF007F" stroke-width="8.31106"/>
<ellipse cx="653.887" cy="32.2713" rx="27.576" ry="27.2713" fill="#FF007F"/>
<path d="M711.785 38.9705C663.276 -22.2757 613.72 13.4513 595.006 38.9705C607.56 54.1255 623.627 71.6186 648.711 72.8693C667.462 73.8042 694.345 66.1608 711.785 38.9705Z" stroke="#FF007F" stroke-width="8.31106"/>
<ellipse cx="792.281" cy="32.2713" rx="27.576" ry="27.2713" fill="#FF007F"/>
<path d="M851.799 38.8172C803.29 -22.429 753.734 13.2979 735.02 38.8172C747.574 53.9721 763.641 71.4653 788.725 72.7159C807.476 73.6509 834.359 66.0074 851.799 38.8172Z" stroke="#FF007F" stroke-width="8.31106"/>
<ellipse cx="653.887" cy="32.2713" rx="27.576" ry="27.2713" fill="#FF007F"/>
<path d="M711.785 38.9705C663.276 -22.2757 613.72 13.4513 595.006 38.9705C607.56 54.1255 623.627 71.6186 648.711 72.8693C667.462 73.8042 694.345 66.1608 711.785 38.9705Z" stroke="#FF007F" stroke-width="8.31106"/>
<ellipse cx="792.281" cy="32.2713" rx="27.576" ry="27.2713" fill="#FF007F"/>
<path d="M851.799 38.8172C803.29 -22.429 753.734 13.2979 735.02 38.8172C747.574 53.9721 763.641 71.4653 788.725 72.7159C807.476 73.6509 834.359 66.0074 851.799 38.8172Z" stroke="#FF007F" stroke-width="8.31106"/>
<ellipse cx="924.911" cy="38.8612" rx="27.576" ry="27.2713" fill="white"/>
<path d="M1000.93 38.9705C952.424 -22.2757 902.868 13.4513 884.154 38.9705C896.708 54.1255 912.775 71.6186 937.859 72.8693C956.61 73.8042 983.493 66.1608 1000.93 38.9705Z" stroke="white" stroke-width="8.31106"/>
<ellipse cx="1066.6" cy="38.8612" rx="27.576" ry="27.2713" fill="white"/>
<path d="M1140.95 38.8172C1092.44 -22.429 1042.88 13.2979 1024.17 38.8172C1036.72 53.9721 1052.79 71.4653 1077.87 72.7159C1096.62 73.6509 1123.51 66.0074 1140.95 38.8172Z" stroke="white" stroke-width="8.31106"/>
<ellipse cx="924.911" cy="38.8612" rx="27.576" ry="27.2713" fill="white"/>
<path d="M1000.93 38.9705C952.424 -22.2757 902.868 13.4513 884.154 38.9705C896.708 54.1255 912.775 71.6186 937.859 72.8693C956.61 73.8042 983.493 66.1608 1000.93 38.9705Z" stroke="white" stroke-width="8.31106"/>
<ellipse cx="1066.6" cy="38.8612" rx="27.576" ry="27.2713" fill="white"/>
<path d="M1140.95 38.8172C1092.44 -22.429 1042.88 13.2979 1024.17 38.8172C1036.72 53.9721 1052.79 71.4653 1077.87 72.7159C1096.62 73.6509 1123.51 66.0074 1140.95 38.8172Z" stroke="white" stroke-width="8.31106"/>
</svg>
