<svg width="356" height="433" viewBox="0 0 356 433" fill="none" xmlns="http://www.w3.org/2000/svg">
<path d="M353.511 129.358C333.111 57.4303 270.309 35.2807 241.458 33.1968C237.78 22.1633 220.688 7.13499 212.602 1H52.4609V310.417C59.5663 329.373 83.8114 366.866 123.949 365.186C98.1918 331.399 109.039 294.806 117.682 280.734C131.06 264.423 166.349 225.697 200.48 201.276C234.611 176.854 250.101 143.155 253.58 129.358C258.039 144.274 272.812 176.361 296.228 185.384C319.643 194.407 344.173 228.17 353.511 243.924V129.358Z" fill="#FF007F" stroke="#FF007F" stroke-width="0.795375"/>
<path d="M253.882 129.023C266.672 92.1939 251.342 49.7612 242.079 33.1484C312.695 38.9388 345.822 99.4774 353.558 129.023C354.826 175.314 356.6 263.406 353.558 245.45C350.517 227.494 316.531 198.655 299.918 186.481C289.266 185.086 265.144 171.642 253.882 129.023Z" fill="#EE0077" stroke="#EE0077" stroke-width="0.795375"/>
<path d="M264.566 377.34C242.105 400.947 214.282 410.645 203.179 412.543C202.081 415.629 184.173 409.992 121.319 362.753C98.0813 322.92 111.637 287.107 121.319 274.18C134.814 258.15 170.079 219.995 203.179 195.612C236.279 171.229 250.016 140.063 252.747 127.528C252.747 130.858 256.081 142.472 269.418 162.286C286.089 187.054 294.17 177.526 314.166 195.612C330.162 210.082 320.831 266.088 314.166 292.282C305.247 313.651 282.841 360.58 264.566 377.34Z" fill="black" stroke="black" stroke-width="0.795375"/>
<path d="M166.21 432.658C181.646 415.094 172.642 401.484 166.21 394.885C178.566 403.346 196.672 402.206 204.18 402.568C214.153 402.478 241.249 399.445 266.726 376.016C269.296 394.877 301.546 420.635 317.739 432.658H166.21Z" fill="#FF007F"/>
<path d="M225.444 325.344C220.964 320.877 213.428 323.483 210.22 325.344C205.919 321.768 199.032 323.854 196.126 325.344C191.057 328.998 180.515 338.723 178.898 348.394C181.405 357.175 193.369 367.568 199.037 371.667H218.063C220.523 370.919 225.444 369.29 225.444 368.756C225.444 368.088 243.578 356.443 242.004 348.394C240.429 340.345 231.043 330.928 225.444 325.344Z" fill="white" stroke="white" stroke-width="0.795375"/>
<path d="M225.444 340.43C222.364 335.518 213.948 337.27 210.125 338.76C209.501 337.895 204.329 337.997 201.821 338.156C199.149 338.914 193.034 341.875 189.954 347.652C191.774 353.43 196.513 356.253 198.656 356.942C200.893 356.545 206.476 356.503 210.904 359.519C213.984 357.229 220.099 356.847 222.771 356.942C225.21 355.988 230.248 353.23 230.884 349.832C231.679 345.584 229.293 346.571 225.444 340.43Z" fill="#FF007F" stroke="#FF007F" stroke-width="0.795375"/>
<path d="M210.173 338.53C205.808 336.583 200.029 338.589 197.686 339.835C197.876 341.769 201.753 343.886 203.667 344.702H219.431C221.69 343.96 226.061 342.033 225.476 340.264C224.744 338.053 217.665 335.619 210.173 338.53Z" fill="black" stroke="black" stroke-width="0.795375"/>
<path d="M53.4465 313.194C53.4593 313.22 53.472 313.245 53.4847 313.271C53.4847 313.9 53.4707 313.922 53.4465 313.194C45.797 297.927 22.0384 259.823 0 241.049V61.8584C0.113556 46.0742 11.9915 11.3035 53.144 1.21973C52.1618 237.932 53.2261 306.574 53.4465 313.194Z" fill="#FF007F"/>
</svg>
