<svg width="1440" height="507" viewBox="0 0 1440 507" fill="none" xmlns="http://www.w3.org/2000/svg">
<g clip-path="url(#clip0_316_2581)">
<rect width="506.927" height="1440" transform="translate(1440) rotate(90)" fill="black"/>
<ellipse cx="122.591" cy="134.246" rx="93.1704" ry="93.1704" transform="rotate(-90 122.591 134.246)" fill="white"/>
<ellipse cx="122.591" cy="372.68" rx="93.1704" ry="93.1704" transform="rotate(-90 122.591 372.68)" fill="white"/>
<ellipse cx="362.028" cy="134.246" rx="93.1704" ry="93.1704" transform="rotate(-90 362.028 134.246)" fill="white"/>
<ellipse cx="362.028" cy="372.68" rx="93.1704" ry="93.1704" transform="rotate(-90 362.028 372.68)" fill="#FF007F"/>
<ellipse cx="601.467" cy="134.246" rx="93.1704" ry="93.1704" transform="rotate(-90 601.467 134.246)" fill="white"/>
<ellipse cx="601.467" cy="372.68" rx="93.1704" ry="93.1704" transform="rotate(-90 601.467 372.68)" fill="white"/>
<ellipse cx="840.903" cy="134.246" rx="93.1704" ry="93.1704" transform="rotate(-90 840.903 134.246)" fill="#FF007F"/>
<ellipse cx="840.903" cy="372.68" rx="93.1704" ry="93.1704" transform="rotate(-90 840.903 372.68)" fill="white"/>
<ellipse cx="1080.34" cy="134.246" rx="93.1704" ry="93.1704" transform="rotate(-90 1080.34 134.246)" fill="white"/>
<ellipse cx="1080.34" cy="372.68" rx="93.1704" ry="93.1704" transform="rotate(-90 1080.34 372.68)" fill="white"/>
<ellipse cx="1319.78" cy="134.246" rx="93.1704" ry="93.1704" transform="rotate(-90 1319.78 134.246)" fill="white"/>
<ellipse cx="1319.78" cy="372.68" rx="93.1704" ry="93.1704" transform="rotate(-90 1319.78 372.68)" fill="#FF007F"/>
<ellipse cx="145.554" cy="135.827" rx="30.9772" ry="30.6349" fill="black"/>
<path d="M188.654 134.164C134.161 65.3637 78.4935 105.497 57.4712 134.164C71.5736 151.188 89.6222 170.839 117.8 172.244C138.864 173.294 169.062 164.708 188.654 134.164Z" stroke="black" stroke-width="5.13434"/>
<ellipse cx="123.514" cy="365.247" rx="30.9772" ry="30.6349" fill="black"/>
<path d="M188.655 372.6C134.163 303.8 78.4949 343.934 57.4727 372.6C71.5751 389.625 89.6236 409.275 117.801 410.68C138.866 411.73 169.064 403.144 188.655 372.6Z" stroke="black" stroke-width="5.13434"/>
<ellipse cx="361.947" cy="365.247" rx="30.9772" ry="30.6349" fill="black"/>
<path d="M428.091 372.6C373.598 303.8 317.93 343.934 296.908 372.6C311.011 389.625 329.059 409.275 357.237 410.68C378.301 411.73 408.499 403.144 428.091 372.6Z" stroke="black" stroke-width="5.13434"/>
<ellipse cx="621.424" cy="372.261" rx="30.9772" ry="30.6349" fill="black"/>
<path d="M667.53 372.6C613.038 303.8 557.37 343.934 536.348 372.6C550.45 389.625 568.499 409.275 596.676 410.68C617.741 411.73 647.939 403.144 667.53 372.6Z" stroke="black" stroke-width="5.13434"/>
<ellipse cx="862.865" cy="374.263" rx="30.9772" ry="30.6349" fill="black"/>
<path d="M906.968 372.6C852.475 303.8 796.807 343.934 775.785 372.6C789.888 389.625 807.936 409.275 836.114 410.68C857.178 411.73 887.376 403.144 906.968 372.6Z" stroke="black" stroke-width="5.13434"/>
<ellipse cx="1320.7" cy="365.247" rx="30.9772" ry="30.6349" fill="black"/>
<path d="M1385.84 372.6C1331.35 303.8 1275.68 343.934 1254.66 372.6C1268.76 389.625 1286.81 409.275 1314.99 410.68C1336.05 411.73 1366.25 403.144 1385.84 372.6Z" stroke="black" stroke-width="5.13434"/>
<ellipse cx="1320.21" cy="141.699" rx="30.9772" ry="30.6349" fill="black"/>
<path d="M1385.84 134.164C1331.35 65.3637 1275.68 105.497 1254.66 134.164C1268.76 151.188 1286.81 170.839 1314.99 172.244C1336.05 173.294 1366.25 164.708 1385.84 134.164Z" stroke="black" stroke-width="5.13434"/>
<ellipse cx="1102.3" cy="135.827" rx="30.9772" ry="30.6349" fill="black"/>
<path d="M1146.41 134.164C1091.91 65.3637 1036.25 105.497 1015.22 134.164C1029.33 151.188 1047.37 170.839 1075.55 172.244C1096.62 173.294 1126.81 164.708 1146.41 134.164Z" stroke="black" stroke-width="5.13434"/>
<ellipse cx="821.791" cy="135.827" rx="30.9772" ry="30.6349" fill="black"/>
<path d="M906.968 134.164C852.475 65.3637 796.807 105.497 775.785 134.164C789.888 151.188 807.936 170.839 836.114 172.244C857.178 173.294 887.376 164.708 906.968 134.164Z" stroke="black" stroke-width="5.13434"/>
<ellipse cx="601.896" cy="141.699" rx="30.9772" ry="30.6349" fill="black"/>
<path d="M667.53 134.164C613.038 65.3637 557.37 105.497 536.348 134.164C550.45 151.188 568.499 170.839 596.676 172.244C617.741 173.294 647.939 164.708 667.53 134.164Z" stroke="black" stroke-width="5.13434"/>
<ellipse cx="382.986" cy="133.822" rx="30.9772" ry="30.6349" fill="black"/>
<path d="M428.091 134.164C373.599 65.3637 317.931 105.497 296.909 134.164C311.011 151.188 329.06 170.839 357.237 172.244C378.302 173.294 408.5 164.708 428.091 134.164Z" stroke="black" stroke-width="5.13434"/>
<ellipse cx="1081.26" cy="365.247" rx="30.9772" ry="30.6349" fill="black"/>
<path d="M1146.41 372.6C1091.91 303.8 1036.25 343.934 1015.22 372.6C1029.33 389.625 1047.37 409.275 1075.55 410.68C1096.62 411.73 1126.81 403.144 1146.41 372.6Z" stroke="black" stroke-width="5.13434"/>
<path d="M94.5392 283.519C110.068 261.981 104.223 232.592 99.047 220.904L102.554 211.888C118.583 206.712 155.951 208.483 143.127 222.909C130.304 237.336 142.961 272.166 149.64 288.028C134.112 298.214 78.9984 305.073 94.5392 283.519Z" fill="white"/>
<path d="M574.146 283.662C589.675 262.124 583.83 232.736 578.654 221.048L582.161 212.032C598.19 206.855 635.558 208.626 622.734 223.053C609.911 237.479 622.568 272.31 629.247 288.172C613.719 298.357 558.605 305.217 574.146 283.662Z" fill="white"/>
<path d="M1053.02 283.662C1068.55 262.124 1062.7 232.736 1057.53 221.048L1061.04 212.032C1077.06 206.855 1114.43 208.626 1101.61 223.053C1088.79 237.479 1101.44 272.31 1108.12 288.172C1092.59 298.357 1037.48 305.217 1053.02 283.662Z" fill="white"/>
<path d="M1169.65 113.937C1191.19 129.466 1220.58 123.621 1232.27 118.444L1241.28 121.951C1246.46 137.981 1244.69 175.348 1230.26 162.525C1215.84 149.701 1181.01 162.359 1165.14 169.037C1154.96 153.509 1148.1 98.3958 1169.65 113.937Z" fill="white"/>
<path d="M1400.07 110.931C1421.61 126.46 1451 120.615 1462.69 115.439L1471.71 118.945C1476.88 134.975 1475.11 172.342 1460.68 159.519C1446.26 146.695 1411.43 159.353 1395.56 166.032C1385.38 150.503 1378.52 95.39 1400.07 110.931Z" fill="white"/>
<path d="M-27.5368 349.367C-5.99869 364.896 23.3897 359.051 35.0776 353.875L44.0939 357.382C49.2701 373.411 47.4992 410.779 33.0728 397.955C18.6464 385.132 -16.184 397.789 -32.0464 404.468C-42.2318 388.94 -49.0912 333.827 -27.5368 349.367Z" fill="white"/>
<path d="M930.215 346.361C951.753 361.89 981.141 356.045 992.829 350.869L1001.85 354.376C1007.02 370.405 1005.25 407.773 990.824 394.95C976.398 382.126 941.567 394.783 925.705 401.462C915.52 385.934 908.66 330.821 930.215 346.361Z" fill="white"/>
<path d="M690.778 346.361C712.316 361.89 741.704 356.045 753.392 350.869L762.408 354.376C767.585 370.405 765.814 407.773 751.387 394.95C736.961 382.126 702.13 394.783 686.268 401.462C676.083 385.934 669.223 330.821 690.778 346.361Z" fill="white"/>
<path d="M453.344 107.926C474.882 123.455 504.27 117.61 515.958 112.434L524.974 115.941C530.15 131.97 528.38 169.337 513.953 156.514C499.527 143.691 464.696 156.348 448.834 163.027C438.649 147.498 431.789 92.3851 453.344 107.926Z" fill="white"/>
<path d="M213.905 107.926C235.443 123.455 264.831 117.61 276.519 112.434L285.535 115.941C290.711 131.97 288.941 169.337 274.514 156.514C260.088 143.691 225.257 156.348 209.395 163.027C199.21 147.498 192.35 92.3851 213.905 107.926Z" fill="white"/>
</g>
<defs>
<clipPath id="clip0_316_2581">
<rect width="506.927" height="1440" fill="white" transform="translate(1440) rotate(90)"/>
</clipPath>
</defs>
</svg>
