<svg width="687" height="158" viewBox="0 0 687 158" fill="none" xmlns="http://www.w3.org/2000/svg">
<ellipse cx="34.5813" cy="34.8669" rx="34.3191" ry="34.3191" transform="rotate(-90 34.5813 34.8669)" fill="white"/>
<ellipse cx="34.5813" cy="122.695" rx="34.3191" ry="34.3191" transform="rotate(-90 34.5813 122.695)" fill="white"/>
<ellipse cx="122.776" cy="34.8669" rx="34.3191" ry="34.3191" transform="rotate(-90 122.776 34.8669)" fill="white"/>
<ellipse cx="122.776" cy="122.695" rx="34.3191" ry="34.3191" transform="rotate(-90 122.776 122.695)" fill="#FF007F"/>
<ellipse cx="210.973" cy="34.8669" rx="34.3191" ry="34.3191" transform="rotate(-90 210.973 34.8669)" fill="white"/>
<ellipse cx="210.973" cy="122.695" rx="34.3191" ry="34.3191" transform="rotate(-90 210.973 122.695)" fill="white"/>
<ellipse cx="299.17" cy="34.8669" rx="34.3191" ry="34.3191" transform="rotate(-90 299.17 34.8669)" fill="#FF007F"/>
<ellipse cx="299.17" cy="122.695" rx="34.3191" ry="34.3191" transform="rotate(-90 299.17 122.695)" fill="white"/>
<ellipse cx="387.366" cy="34.8669" rx="34.3191" ry="34.3191" transform="rotate(-90 387.366 34.8669)" fill="white"/>
<ellipse cx="387.366" cy="122.695" rx="34.3191" ry="34.3191" transform="rotate(-90 387.366 122.695)" fill="white"/>
<ellipse cx="475.562" cy="34.8669" rx="34.3191" ry="34.3191" transform="rotate(-90 475.562 34.8669)" fill="white"/>
<ellipse cx="475.562" cy="122.695" rx="34.3191" ry="34.3191" transform="rotate(-90 475.562 122.695)" fill="#FF007F"/>
<ellipse cx="43.0388" cy="35.4504" rx="11.4104" ry="11.2843" fill="black"/>
<path d="M58.9158 34.8386C38.8436 9.49615 18.3385 24.2792 10.595 34.8386C15.7896 41.1093 22.4377 48.3476 32.8169 48.8651C40.5759 49.252 51.6993 46.0893 58.9158 34.8386Z" stroke="black" stroke-width="1.79225"/>
<ellipse cx="34.9199" cy="119.956" rx="11.4104" ry="11.2843" fill="black"/>
<path d="M58.9138 122.664C38.8416 97.3221 18.3365 112.105 10.593 122.664C15.7876 128.935 22.4358 136.174 32.8149 136.691C40.574 137.078 51.6974 133.915 58.9138 122.664Z" stroke="black" stroke-width="1.79225"/>
<ellipse cx="122.745" cy="119.956" rx="11.4104" ry="11.2843" fill="black"/>
<path d="M147.11 122.664C127.038 97.3221 106.533 112.105 98.7896 122.664C103.984 128.935 110.632 136.174 121.011 136.691C128.771 137.078 139.894 133.915 147.11 122.664Z" stroke="black" stroke-width="1.79225"/>
<ellipse cx="218.324" cy="122.539" rx="11.4104" ry="11.2843" fill="black"/>
<path d="M235.308 122.664C215.236 97.3221 194.731 112.105 186.988 122.664C192.182 128.935 198.83 136.174 209.209 136.691C216.969 137.078 228.092 133.915 235.308 122.664Z" stroke="black" stroke-width="1.79225"/>
<ellipse cx="307.257" cy="123.278" rx="11.4104" ry="11.2843" fill="black"/>
<path d="M323.503 122.664C303.431 97.3221 282.926 112.105 275.182 122.664C280.377 128.935 287.025 136.174 297.404 136.691C305.163 137.078 316.286 133.915 323.503 122.664Z" stroke="black" stroke-width="1.79225"/>
<ellipse cx="475.903" cy="119.956" rx="11.4104" ry="11.2843" fill="black"/>
<path d="M499.897 122.664C479.825 97.3221 459.32 112.105 451.576 122.664C456.771 128.935 463.419 136.174 473.798 136.691C481.557 137.078 492.681 133.915 499.897 122.664Z" stroke="black" stroke-width="1.79225"/>
<ellipse cx="475.721" cy="37.6144" rx="11.4104" ry="11.2843" fill="black"/>
<path d="M499.897 34.8386C479.825 9.49615 459.32 24.2792 451.576 34.8386C456.771 41.1093 463.419 48.3476 473.798 48.8651C481.557 49.252 492.681 46.0893 499.897 34.8386Z" stroke="black" stroke-width="1.79225"/>
<ellipse cx="395.457" cy="35.4504" rx="11.4104" ry="11.2843" fill="black"/>
<path d="M411.701 34.8386C391.629 9.49615 371.124 24.2792 363.38 34.8386C368.575 41.1093 375.223 48.3476 385.602 48.8651C393.361 49.252 404.484 46.0893 411.701 34.8386Z" stroke="black" stroke-width="1.79225"/>
<ellipse cx="292.128" cy="35.4506" rx="11.4104" ry="11.2843" fill="black"/>
<path d="M323.503 34.8387C303.431 9.49627 282.926 24.2793 275.182 34.8387C280.377 41.1095 287.025 48.3478 297.404 48.8653C305.163 49.2521 316.286 46.0894 323.503 34.8387Z" stroke="black" stroke-width="1.79225"/>
<ellipse cx="211.132" cy="37.6144" rx="11.4104" ry="11.2843" fill="black"/>
<path d="M235.308 34.8386C215.236 9.49615 194.731 24.2792 186.988 34.8386C192.182 41.1093 198.83 48.3476 209.209 48.8651C216.969 49.252 228.092 46.0893 235.308 34.8386Z" stroke="black" stroke-width="1.79225"/>
<ellipse cx="130.496" cy="34.7123" rx="11.4104" ry="11.2843" fill="black"/>
<path d="M147.11 34.8387C127.038 9.49627 106.533 24.2793 98.7896 34.8387C103.984 41.1095 110.632 48.3478 121.011 48.8653C128.771 49.2521 139.894 46.0894 147.11 34.8387Z" stroke="black" stroke-width="1.79225"/>
<ellipse cx="387.707" cy="119.956" rx="11.4104" ry="11.2843" fill="black"/>
<path d="M411.701 122.664C391.629 97.3221 371.124 112.105 363.38 122.664C368.575 128.935 375.223 136.174 385.602 136.691C393.361 137.078 404.484 133.915 411.701 122.664Z" stroke="black" stroke-width="1.79225"/>
<path d="M24.2469 89.8513C29.9669 81.9178 27.8139 71.0926 25.9073 66.7874L27.1991 63.4662C33.1034 61.5596 46.8677 62.2119 42.1442 67.5259C37.4207 72.8398 42.083 85.6695 44.5431 91.5124C38.8233 95.2642 18.5225 97.7908 24.2469 89.8513Z" fill="white"/>
<path d="M200.909 89.9049C206.63 81.9714 204.477 71.1462 202.57 66.841L203.862 63.5198C209.766 61.6132 223.53 62.2655 218.807 67.5795C214.083 72.8934 218.746 85.7231 221.206 91.566C215.486 95.3178 195.185 97.8444 200.909 89.9049Z" fill="white"/>
<path d="M377.303 89.9049C383.023 81.9714 380.87 71.1462 378.964 66.841L380.255 63.5198C386.16 61.6132 399.924 62.2655 395.201 67.5795C390.477 72.8934 395.139 85.7231 397.6 91.566C391.88 95.3178 371.579 97.8444 377.303 89.9049Z" fill="white"/>
<path d="M420.262 27.3877C428.196 33.1078 439.021 30.9548 443.326 29.0482L446.647 30.3399C448.554 36.2443 447.902 50.0086 442.588 45.2851C437.274 40.5616 424.444 45.2239 418.601 47.684C414.849 41.9642 412.323 21.6633 420.262 27.3877Z" fill="white"/>
<path d="M332.066 112.999C339.999 118.719 350.825 116.566 355.13 114.66L358.451 115.952C360.358 121.856 359.705 135.62 354.391 130.897C349.077 126.173 336.248 130.835 330.405 133.296C326.653 127.576 324.126 107.275 332.066 112.999Z" fill="white"/>
<path d="M243.871 112.999C251.804 118.719 262.63 116.566 266.935 114.66L270.256 115.952C272.163 121.856 271.51 135.62 266.196 130.897C260.882 126.173 248.053 130.835 242.21 133.296C238.458 127.576 235.931 107.275 243.871 112.999Z" fill="white"/>
<path d="M156.411 25.1728C164.344 30.8928 175.17 28.7398 179.475 26.8332L182.796 28.125C184.703 34.0293 184.05 47.7936 178.736 43.0701C173.422 38.3466 160.593 43.0089 154.75 45.469C150.998 39.7492 148.471 19.4484 156.411 25.1728Z" fill="white"/>
<path d="M68.2146 25.1728C76.1481 30.8928 86.9733 28.7398 91.2785 26.8332L94.5997 28.125C96.5063 34.0293 95.854 47.7936 90.54 43.0701C85.2261 38.3466 72.3964 43.0089 66.5535 45.469C62.8018 39.7492 60.2751 19.4484 68.2146 25.1728Z" fill="white"/>
<ellipse cx="563.521" cy="34.8669" rx="34.3191" ry="34.3191" transform="rotate(-90 563.521 34.8669)" fill="white"/>
<ellipse cx="563.521" cy="122.695" rx="34.3191" ry="34.3191" transform="rotate(-90 563.521 122.695)" fill="white"/>
<ellipse cx="651.719" cy="34.8669" rx="34.3191" ry="34.3191" transform="rotate(-90 651.719 34.8669)" fill="white"/>
<ellipse cx="651.719" cy="122.695" rx="34.3191" ry="34.3191" transform="rotate(-90 651.719 122.695)" fill="#FF007F"/>
<ellipse cx="571.981" cy="35.4504" rx="11.4104" ry="11.2843" fill="black"/>
<path d="M587.858 34.8386C567.785 9.49615 547.28 24.2792 539.537 34.8386C544.731 41.1093 551.38 48.3476 561.759 48.8651C569.518 49.252 580.641 46.0893 587.858 34.8386Z" stroke="black" stroke-width="1.79225"/>
<ellipse cx="563.862" cy="119.956" rx="11.4104" ry="11.2843" fill="black"/>
<path d="M587.856 122.664C567.784 97.3221 547.278 112.105 539.535 122.664C544.73 128.935 551.378 136.174 561.757 136.691C569.516 137.078 580.639 133.915 587.856 122.664Z" stroke="black" stroke-width="1.79225"/>
<ellipse cx="651.686" cy="119.956" rx="11.4104" ry="11.2843" fill="black"/>
<path d="M676.051 122.664C655.979 97.3221 635.474 112.105 627.73 122.664C632.925 128.935 639.573 136.174 649.952 136.691C657.711 137.078 668.835 133.915 676.051 122.664Z" stroke="black" stroke-width="1.79225"/>
<ellipse cx="659.437" cy="34.7122" rx="11.4104" ry="11.2843" fill="black"/>
<path d="M676.051 34.8386C655.979 9.49615 635.474 24.2792 627.73 34.8386C632.925 41.1093 639.573 48.3476 649.952 48.8651C657.711 49.252 668.835 46.0893 676.051 34.8386Z" stroke="black" stroke-width="1.79225"/>
<path d="M553.19 89.8513C558.91 81.9178 556.757 71.0926 554.85 66.7874L556.142 63.4662C562.046 61.5596 575.81 62.2119 571.087 67.5259C566.363 72.8398 571.026 85.6695 573.486 91.5124C567.766 95.2642 547.465 97.7908 553.19 89.8513Z" fill="white"/>
<path d="M508.542 26.111C516.475 31.8311 527.3 29.678 531.605 27.7715L534.927 29.0632C536.833 34.9676 536.181 48.7318 530.867 44.0083C525.553 39.2848 512.723 43.9471 506.88 46.4073C503.129 40.6875 500.602 20.3866 508.542 26.111Z" fill="white"/>
<path d="M597.158 25.1728C605.092 30.8928 615.917 28.7398 620.222 26.8332L623.544 28.125C625.45 34.0293 624.798 47.7936 619.484 43.0701C614.17 38.3466 601.34 43.0089 595.497 45.469C591.746 39.7492 589.219 19.4484 597.158 25.1728Z" fill="white"/>
</svg>
