<svg width="1559" height="437" viewBox="0 0 1559 437" fill="none" xmlns="http://www.w3.org/2000/svg">
<ellipse cx="169.535" cy="95.946" rx="95.7386" ry="95.7386" transform="rotate(-90 169.535 95.946)" fill="white"/>
<ellipse cx="169.535" cy="340.954" rx="95.7386" ry="95.7386" transform="rotate(-90 169.535 340.954)" fill="white"/>
<ellipse cx="415.573" cy="95.946" rx="95.7386" ry="95.7386" transform="rotate(-90 415.573 95.946)" fill="white"/>
<ellipse cx="415.573" cy="340.955" rx="95.7386" ry="95.7386" transform="rotate(-90 415.573 340.955)" fill="#FF007F"/>
<ellipse cx="661.61" cy="95.946" rx="95.7386" ry="95.7386" transform="rotate(-90 661.61 95.946)" fill="white"/>
<ellipse cx="661.61" cy="340.954" rx="95.7386" ry="95.7386" transform="rotate(-90 661.61 340.954)" fill="white"/>
<ellipse cx="907.648" cy="95.946" rx="95.7386" ry="95.7386" transform="rotate(-90 907.648 95.946)" fill="#FF007F"/>
<ellipse cx="907.648" cy="340.954" rx="95.7386" ry="95.7386" transform="rotate(-90 907.648 340.954)" fill="white"/>
<ellipse cx="1153.69" cy="95.946" rx="95.7386" ry="95.7386" transform="rotate(-90 1153.69 95.946)" fill="white"/>
<ellipse cx="1153.69" cy="340.955" rx="95.7386" ry="95.7386" transform="rotate(-90 1153.69 340.955)" fill="white"/>
<ellipse cx="1399.72" cy="95.946" rx="95.7386" ry="95.7386" transform="rotate(-90 1399.72 95.946)" fill="white"/>
<ellipse cx="1399.72" cy="340.954" rx="95.7386" ry="95.7386" transform="rotate(-90 1399.72 340.954)" fill="#FF007F"/>
<ellipse cx="193.13" cy="97.5716" rx="31.8311" ry="31.4793" fill="black"/>
<path d="M237.419 95.8624C181.424 25.1658 124.222 66.4055 102.62 95.8624C117.111 113.356 135.657 133.548 164.612 134.992C186.257 136.071 217.287 127.248 237.419 95.8624Z" stroke="black" stroke-width="5.27587"/>
<ellipse cx="170.482" cy="333.315" rx="31.8311" ry="31.4793" fill="black"/>
<path d="M237.419 340.871C181.424 270.175 124.222 311.414 102.62 340.871C117.111 358.365 135.657 378.557 164.612 380.001C186.257 381.08 217.287 372.257 237.419 340.871Z" stroke="black" stroke-width="5.27587"/>
<ellipse cx="415.49" cy="333.315" rx="31.8311" ry="31.4793" fill="black"/>
<path d="M483.457 340.871C427.462 270.175 370.26 311.414 348.658 340.871C363.149 358.365 381.695 378.557 410.65 380.001C432.295 381.08 463.325 372.257 483.457 340.871Z" stroke="black" stroke-width="5.27587"/>
<ellipse cx="682.118" cy="340.522" rx="31.8311" ry="31.4793" fill="black"/>
<path d="M729.495 340.871C673.5 270.175 616.298 311.414 594.696 340.871C609.187 358.365 627.734 378.557 656.688 380.001C678.333 381.08 709.363 372.257 729.495 340.871Z" stroke="black" stroke-width="5.27587"/>
<ellipse cx="930.215" cy="342.58" rx="31.8311" ry="31.4793" fill="black"/>
<path d="M975.533 340.871C919.538 270.175 862.336 311.414 840.734 340.871C855.226 358.365 873.772 378.557 902.726 380.001C924.371 381.08 955.401 372.257 975.533 340.871Z" stroke="black" stroke-width="5.27587"/>
<ellipse cx="1400.67" cy="333.315" rx="31.8311" ry="31.4793" fill="black"/>
<path d="M1467.61 340.871C1411.61 270.175 1354.41 311.414 1332.81 340.871C1347.3 358.365 1365.85 378.557 1394.8 380.001C1416.45 381.08 1447.48 372.257 1467.61 340.871Z" stroke="black" stroke-width="5.27587"/>
<ellipse cx="1400.16" cy="103.606" rx="31.8311" ry="31.4793" fill="black"/>
<path d="M1467.61 95.8624C1411.61 25.1658 1354.41 66.4055 1332.81 95.8624C1347.3 113.356 1365.85 133.548 1394.8 134.992C1416.45 136.071 1447.48 127.248 1467.61 95.8624Z" stroke="black" stroke-width="5.27587"/>
<ellipse cx="1176.25" cy="97.5716" rx="31.8311" ry="31.4793" fill="black"/>
<path d="M1221.57 95.8624C1165.58 25.1658 1108.37 66.4055 1086.77 95.8624C1101.26 113.356 1119.81 133.548 1148.76 134.992C1170.41 136.071 1201.44 127.248 1221.57 95.8624Z" stroke="black" stroke-width="5.27587"/>
<ellipse cx="888.007" cy="97.5716" rx="31.8311" ry="31.4793" fill="black"/>
<path d="M975.532 95.8624C919.537 25.1658 862.335 66.4055 840.733 95.8624C855.225 113.356 873.771 133.548 902.725 134.992C924.37 136.071 955.4 127.248 975.532 95.8624Z" stroke="black" stroke-width="5.27587"/>
<ellipse cx="662.051" cy="103.606" rx="31.8311" ry="31.4793" fill="black"/>
<path d="M729.495 95.8624C673.5 25.1658 616.298 66.4055 594.696 95.8624C609.187 113.356 627.734 133.548 656.688 134.992C678.333 136.071 709.363 127.248 729.495 95.8624Z" stroke="black" stroke-width="5.27587"/>
<ellipse cx="437.108" cy="95.5121" rx="31.8311" ry="31.4793" fill="black"/>
<path d="M483.457 95.8624C427.462 25.1658 370.26 66.4055 348.658 95.8624C363.149 113.356 381.695 133.548 410.65 134.992C432.295 136.071 463.325 127.248 483.457 95.8624Z" stroke="black" stroke-width="5.27587"/>
<ellipse cx="1154.63" cy="333.315" rx="31.8311" ry="31.4793" fill="black"/>
<path d="M1221.57 340.871C1165.58 270.175 1108.37 311.414 1086.77 340.871C1101.26 358.365 1119.81 378.557 1148.76 380.001C1170.41 381.08 1201.44 372.257 1221.57 340.871Z" stroke="black" stroke-width="5.27587"/>
<path d="M140.709 249.334C156.666 227.202 150.66 197.004 145.341 184.994L148.945 175.729C165.416 170.41 203.814 172.23 190.637 187.054C177.46 201.878 190.466 237.668 197.329 253.968C181.373 264.434 124.74 271.482 140.709 249.334Z" fill="white"/>
<path d="M633.535 249.483C649.492 227.351 643.486 197.153 638.168 185.142L641.771 175.878C658.242 170.559 696.64 172.378 683.463 187.202C670.286 202.027 683.292 237.817 690.155 254.117C674.199 264.583 617.566 271.631 633.535 249.483Z" fill="white"/>
<path d="M1125.61 249.483C1141.57 227.351 1135.56 197.153 1130.24 185.142L1133.85 175.878C1150.32 170.559 1188.72 172.378 1175.54 187.202C1162.36 202.027 1175.37 237.817 1182.23 254.117C1166.27 264.583 1109.64 271.631 1125.61 249.483Z" fill="white"/>
<path d="M1245.46 75.0774C1267.59 91.0344 1297.79 85.0282 1309.8 79.7095L1319.06 83.313C1324.38 99.7842 1322.56 138.182 1307.74 125.005C1292.91 111.828 1257.12 124.834 1240.82 131.697C1230.36 115.741 1223.31 59.1083 1245.46 75.0774Z" fill="white"/>
<path d="M1482.23 71.9895C1504.36 87.9465 1534.56 81.9403 1546.57 76.6216L1555.84 80.2251C1561.15 96.6963 1559.33 135.094 1544.51 121.917C1529.69 108.74 1493.9 121.746 1477.6 128.609C1467.13 112.653 1460.08 56.0204 1482.23 71.9895Z" fill="white"/>
<path d="M15.2688 316.998C37.4005 332.955 67.599 326.949 79.609 321.63L88.8739 325.234C94.1927 341.705 92.373 380.103 77.549 366.926C62.7249 353.749 26.9344 366.755 10.6349 373.618C0.168669 357.662 -6.87982 301.029 15.2688 316.998Z" fill="white"/>
<path d="M999.42 313.909C1021.55 329.866 1051.75 323.86 1063.76 318.541L1073.03 322.145C1078.34 338.616 1076.52 377.013 1061.7 363.836C1046.88 350.659 1011.09 363.666 994.786 370.529C984.32 354.572 977.272 297.94 999.42 313.909Z" fill="white"/>
<path d="M753.383 313.909C775.515 329.866 805.713 323.86 817.723 318.542L826.988 322.145C832.307 338.616 830.487 377.014 815.663 363.837C800.839 350.66 765.049 363.666 748.749 370.529C738.283 354.573 731.234 297.94 753.383 313.909Z" fill="white"/>
<path d="M509.404 68.9016C531.535 84.8586 561.734 78.8524 573.744 73.5337L583.009 77.1372C588.328 93.6084 586.508 132.006 571.684 118.829C556.86 105.652 521.069 118.658 504.77 125.521C494.303 109.565 487.255 52.9325 509.404 68.9016Z" fill="white"/>
<path d="M263.365 68.9016C285.497 84.8586 315.696 78.8524 327.706 73.5337L336.971 77.1372C342.289 93.6084 340.47 132.006 325.646 118.829C310.822 105.652 275.031 118.658 258.732 125.521C248.265 109.565 241.217 52.9325 263.365 68.9016Z" fill="white"/>
</svg>
