<svg width="403" height="360" viewBox="0 0 403 360" fill="none" xmlns="http://www.w3.org/2000/svg">
<path d="M100.517 290.959C83.6761 290.959 68.632 288.282 55.3848 282.927C42.208 277.501 31.8498 270.173 24.3101 260.942C16.8409 251.641 13.1063 241.141 13.1063 229.444C13.1063 220.495 15.2555 212.286 19.5538 204.817C23.8521 197.348 29.6654 191.147 36.9937 186.215C44.3924 181.212 52.6367 178.006 61.7266 176.596V174.905C49.8181 172.721 40.0588 167.189 32.4487 158.311C24.9091 149.432 21.1392 139.039 21.1392 127.13C21.1392 115.856 24.5567 105.815 31.3918 97.007C38.2972 88.199 47.7042 81.2583 59.6126 76.1849C71.5915 71.1115 85.2263 68.5748 100.517 68.5748C115.808 68.5748 129.407 71.1115 141.316 76.1849C153.295 81.2583 162.702 88.199 169.537 97.007C176.442 105.815 179.895 115.856 179.895 127.13C179.895 139.109 176.055 149.538 168.374 158.417C160.764 167.225 151.075 172.721 139.308 174.905V176.596C148.327 178.006 156.501 181.212 163.829 186.215C171.228 191.147 177.076 197.348 181.375 204.817C185.743 212.286 187.928 220.495 187.928 229.444C187.928 241.141 184.158 251.641 176.618 260.942C169.079 270.173 158.72 277.501 145.544 282.927C132.437 288.282 117.428 290.959 100.517 290.959ZM100.517 253.86C106.929 253.86 112.566 252.662 117.428 250.266C122.29 247.8 126.096 244.383 128.844 240.014C131.662 235.645 133.071 230.713 133.071 225.216C133.071 219.579 131.662 214.576 128.844 210.208C126.025 205.839 122.15 202.421 117.217 199.955C112.355 197.418 106.788 196.15 100.517 196.15C94.3162 196.15 88.7495 197.418 83.8171 199.955C78.8846 202.421 75.009 205.839 72.1905 210.208C69.3719 214.576 67.9626 219.579 67.9626 225.216C67.9626 230.713 69.3367 235.645 72.0848 240.014C74.9033 244.312 78.7436 247.695 83.6057 250.161C88.5382 252.627 94.1753 253.86 100.517 253.86ZM100.517 159.262C106.013 159.262 110.875 158.135 115.103 155.88C119.401 153.625 122.748 150.489 125.144 146.473C127.61 142.456 128.844 137.911 128.844 132.838C128.844 127.765 127.61 123.29 125.144 119.415C122.748 115.539 119.437 112.509 115.209 110.325C110.981 108.07 106.084 106.942 100.517 106.942C95.0209 106.942 90.1236 108.07 85.8253 110.325C81.527 112.509 78.1799 115.539 75.7842 119.415C73.3884 123.29 72.1905 127.765 72.1905 132.838C72.1905 137.911 73.3884 142.456 75.7842 146.473C78.2504 150.419 81.6327 153.554 85.931 155.88C90.2293 158.135 95.0913 159.262 100.517 159.262ZM301.657 290.959C284.816 290.959 269.772 288.282 256.525 282.927C243.348 277.501 232.99 270.173 225.45 260.942C217.981 251.641 214.246 241.141 214.246 229.444C214.246 220.495 216.395 212.286 220.694 204.817C224.992 197.348 230.805 191.147 238.133 186.215C245.532 181.212 253.776 178.006 262.866 176.596V174.905C250.958 172.721 241.199 167.189 233.589 158.311C226.049 149.432 222.279 139.039 222.279 127.13C222.279 115.856 225.697 105.815 232.532 97.007C239.437 88.199 248.844 81.2583 260.752 76.1849C272.731 71.1115 286.366 68.5748 301.657 68.5748C316.948 68.5748 330.547 71.1115 342.456 76.1849C354.434 81.2583 363.841 88.199 370.676 97.007C377.582 105.815 381.035 115.856 381.035 127.13C381.035 139.109 377.194 149.538 369.514 158.417C361.904 167.225 352.215 172.721 340.447 174.905V176.596C349.467 178.006 357.641 181.212 364.969 186.215C372.368 191.147 378.216 197.348 382.514 204.817C386.883 212.286 389.068 220.495 389.068 229.444C389.068 241.141 385.298 251.641 377.758 260.942C370.218 270.173 359.86 277.501 346.683 282.927C333.577 288.282 318.568 290.959 301.657 290.959ZM301.657 253.86C308.069 253.86 313.706 252.662 318.568 250.266C323.43 247.8 327.235 244.383 329.983 240.014C332.802 235.645 334.211 230.713 334.211 225.216C334.211 219.579 332.802 214.576 329.983 210.208C327.165 205.839 323.289 202.421 318.357 199.955C313.495 197.418 307.928 196.15 301.657 196.15C295.456 196.15 289.889 197.418 284.957 199.955C280.024 202.421 276.149 205.839 273.33 210.208C270.512 214.576 269.102 219.579 269.102 225.216C269.102 230.713 270.476 235.645 273.225 240.014C276.043 244.312 279.883 247.695 284.745 250.161C289.678 252.627 295.315 253.86 301.657 253.86ZM301.657 159.262C307.153 159.262 312.015 158.135 316.243 155.88C320.541 153.625 323.888 150.489 326.284 146.473C328.75 142.456 329.983 137.911 329.983 132.838C329.983 127.765 328.75 123.29 326.284 119.415C323.888 115.539 320.576 112.509 316.349 110.325C312.121 108.07 307.224 106.942 301.657 106.942C296.161 106.942 291.263 108.07 286.965 110.325C282.667 112.509 279.32 115.539 276.924 119.415C274.528 123.29 273.33 127.765 273.33 132.838C273.33 137.911 274.528 142.456 276.924 146.473C279.39 150.419 282.772 153.554 287.071 155.88C291.369 158.135 296.231 159.262 301.657 159.262Z" fill="white"/>
<ellipse cx="99.0896" cy="129.428" rx="38.0896" ry="32.4276" fill="white"/>
<ellipse cx="99.0896" cy="228.254" rx="38.0896" ry="32.4276" fill="white"/>
<ellipse cx="301.89" cy="136.634" rx="38.0896" ry="32.4276" fill="white"/>
<ellipse cx="300.861" cy="226.196" rx="38.0896" ry="32.4276" fill="white"/>
<path d="M140.304 127.206C107.79 86.1542 74.5738 110.101 62.0303 127.206C70.4449 137.364 81.2141 149.089 98.027 149.927C110.596 150.554 128.614 145.431 140.304 127.206Z" fill="black" stroke="black" stroke-width="4.62688"/>
<path d="M341.045 231.876C308.531 190.824 275.315 214.771 262.771 231.876C271.186 242.034 281.955 253.759 298.768 254.597C311.337 255.224 329.356 250.101 341.045 231.876Z" fill="black" stroke="black" stroke-width="4.62688"/>
<path d="M140.304 224.67C107.79 183.618 74.5738 207.565 62.0303 224.67C70.4449 234.828 81.2141 246.553 98.027 247.391C110.596 248.018 128.614 242.894 140.304 224.67Z" stroke="black" stroke-width="4.62688"/>
<path d="M341.045 134.079C308.531 93.0272 275.315 116.974 262.771 134.079C271.186 144.237 281.955 155.962 298.768 156.8C311.337 157.427 329.356 152.304 341.045 134.079Z" stroke="black" stroke-width="4.62688"/>
<path d="M341.045 119.667C308.531 78.6151 275.315 102.562 262.771 119.667C271.186 129.825 281.955 141.55 298.768 142.388C311.337 143.015 329.356 137.892 341.045 119.667Z" stroke="black" stroke-width="4.62688"/>
<path d="M140.304 241.141C107.79 200.09 74.5738 224.036 62.0303 241.141C70.4449 251.299 81.2141 263.024 98.027 263.863C110.596 264.489 128.614 259.366 140.304 241.141Z" stroke="black" stroke-width="4.62688"/>
<ellipse cx="101.663" cy="117.588" rx="16.9859" ry="16.4712" fill="white"/>
<ellipse cx="302.405" cy="242.152" rx="16.9859" ry="16.4712" fill="white"/>
</svg>
