<svg width="432" height="432" viewBox="0 0 432 432" fill="none" xmlns="http://www.w3.org/2000/svg">
<rect width="431.966" height="431.966" rx="66.7707" fill="white"/>
<path d="M113.901 328.02C97.0599 328.02 82.0158 325.342 68.7686 319.987C55.5918 314.561 45.2336 307.233 37.6939 298.002C30.2247 288.701 26.4901 278.202 26.4901 266.505C26.4901 257.556 28.6393 249.347 32.9376 241.878C37.2359 234.408 43.0492 228.208 50.3774 223.275C57.7762 218.272 66.0205 215.066 75.1103 213.657V211.966C63.2019 209.781 53.4426 204.25 45.8325 195.371C38.2929 186.493 34.523 176.099 34.523 164.191C34.523 152.917 37.9405 142.876 44.7755 134.068C51.681 125.26 61.088 118.319 72.9964 113.245C84.9753 108.172 98.6101 105.635 113.901 105.635C129.192 105.635 142.791 108.172 154.7 113.245C166.678 118.319 176.085 125.26 182.92 134.068C189.826 142.876 193.279 152.917 193.279 164.191C193.279 176.17 189.438 186.599 181.758 195.477C174.148 204.285 164.459 209.781 152.691 211.966V213.657C161.711 215.066 169.885 218.272 177.213 223.275C184.612 228.208 190.46 234.408 194.758 241.878C199.127 249.347 201.312 257.556 201.312 266.505C201.312 278.202 197.542 288.701 190.002 298.002C182.462 307.233 172.104 314.561 158.927 319.987C145.821 325.342 130.812 328.02 113.901 328.02ZM113.901 290.921C120.313 290.921 125.95 289.723 130.812 287.327C135.674 284.861 139.479 281.443 142.227 277.074C145.046 272.706 146.455 267.773 146.455 262.277C146.455 256.64 145.046 251.637 142.227 247.268C139.409 242.899 135.533 239.482 130.601 237.016C125.739 234.479 120.172 233.211 113.901 233.211C107.7 233.211 102.133 234.479 97.2008 237.016C92.2684 239.482 88.3928 242.899 85.5743 247.268C82.7557 251.637 81.3464 256.64 81.3464 262.277C81.3464 267.773 82.7205 272.706 85.4686 277.074C88.2871 281.373 92.1274 284.755 96.9895 287.221C101.922 289.688 107.559 290.921 113.901 290.921ZM113.901 196.323C119.397 196.323 124.259 195.195 128.487 192.94C132.785 190.685 136.132 187.55 138.528 183.533C140.994 179.517 142.227 174.972 142.227 169.899C142.227 164.825 140.994 160.351 138.528 156.475C136.132 152.6 132.82 149.57 128.593 147.385C124.365 145.13 119.468 144.003 113.901 144.003C108.405 144.003 103.507 145.13 99.2091 147.385C94.9108 149.57 91.5637 152.6 89.1679 156.475C86.7722 160.351 85.5743 164.825 85.5743 169.899C85.5743 174.972 86.7722 179.517 89.1679 183.533C91.6342 187.479 95.0165 190.615 99.3148 192.94C103.613 195.195 108.475 196.323 113.901 196.323ZM315.041 328.02C298.2 328.02 283.156 325.342 269.908 319.987C256.732 314.561 246.373 307.233 238.834 298.002C231.364 288.701 227.63 278.202 227.63 266.505C227.63 257.556 229.779 249.347 234.077 241.878C238.376 234.408 244.189 228.208 251.517 223.275C258.916 218.272 267.16 215.066 276.25 213.657V211.966C264.342 209.781 254.582 204.25 246.972 195.371C239.433 186.493 235.663 176.099 235.663 164.191C235.663 152.917 239.08 142.876 245.915 134.068C252.821 125.26 262.228 118.319 274.136 113.245C286.115 108.172 299.75 105.635 315.041 105.635C330.331 105.635 343.931 108.172 355.839 113.245C367.818 118.319 377.225 125.26 384.06 134.068C390.966 142.876 394.418 152.917 394.418 164.191C394.418 176.17 390.578 186.599 382.898 195.477C375.287 204.285 365.599 209.781 353.831 211.966V213.657C362.851 215.066 371.024 218.272 378.353 223.275C385.751 228.208 391.6 234.408 395.898 241.878C400.267 249.347 402.451 257.556 402.451 266.505C402.451 278.202 398.682 288.701 391.142 298.002C383.602 307.233 373.244 314.561 360.067 319.987C346.961 325.342 331.952 328.02 315.041 328.02ZM315.041 290.921C321.453 290.921 327.09 289.723 331.952 287.327C336.814 284.861 340.619 281.443 343.367 277.074C346.186 272.706 347.595 267.773 347.595 262.277C347.595 256.64 346.186 251.637 343.367 247.268C340.549 242.899 336.673 239.482 331.741 237.016C326.879 234.479 321.312 233.211 315.041 233.211C308.84 233.211 303.273 234.479 298.341 237.016C293.408 239.482 289.533 242.899 286.714 247.268C283.895 251.637 282.486 256.64 282.486 262.277C282.486 267.773 283.86 272.706 286.608 277.074C289.427 281.373 293.267 284.755 298.129 287.221C303.062 289.688 308.699 290.921 315.041 290.921ZM315.041 196.323C320.537 196.323 325.399 195.195 329.627 192.94C333.925 190.685 337.272 187.55 339.668 183.533C342.134 179.517 343.367 174.972 343.367 169.899C343.367 164.825 342.134 160.351 339.668 156.475C337.272 152.6 333.96 149.57 329.732 147.385C325.505 145.13 320.607 144.003 315.041 144.003C309.544 144.003 304.647 145.13 300.349 147.385C296.051 149.57 292.704 152.6 290.308 156.475C287.912 160.351 286.714 164.825 286.714 169.899C286.714 174.972 287.912 179.517 290.308 183.533C292.774 187.479 296.156 190.615 300.455 192.94C304.753 195.195 309.615 196.323 315.041 196.323Z" fill="#FF007F"/>
<ellipse cx="113.24" cy="164.198" rx="38.0896" ry="32.4276" fill="#FF007F"/>
<ellipse cx="113.24" cy="263.024" rx="38.0896" ry="32.4276" fill="#FF007F"/>
<ellipse cx="316.041" cy="171.404" rx="38.0896" ry="32.4276" fill="#FF007F"/>
<ellipse cx="315.011" cy="260.967" rx="38.0896" ry="32.4276" fill="#FF007F"/>
<path d="M154.454 161.976C121.94 120.925 88.7242 144.871 76.1807 161.976C84.5953 172.134 95.3645 183.859 112.177 184.698C124.746 185.324 142.765 180.201 154.454 161.976Z" fill="black" stroke="black" stroke-width="4.62688"/>
<path d="M355.196 266.646C322.681 225.595 289.465 249.541 276.922 266.646C285.336 276.804 296.106 288.529 312.919 289.368C325.487 289.994 343.506 284.871 355.196 266.646Z" fill="black" stroke="black" stroke-width="4.62688"/>
<path d="M154.454 259.44C121.94 218.389 88.7242 242.335 76.1807 259.44C84.5953 269.598 95.3645 281.323 112.177 282.162C124.746 282.788 142.765 277.665 154.454 259.44Z" stroke="black" stroke-width="4.62688"/>
<path d="M355.196 168.849C322.681 127.798 289.465 151.744 276.922 168.849C285.336 179.007 296.106 190.732 312.919 191.571C325.487 192.197 343.506 187.074 355.196 168.849Z" stroke="black" stroke-width="4.62688"/>
<path d="M355.196 154.437C322.681 113.386 289.465 137.332 276.922 154.437C285.336 164.595 296.106 176.32 312.919 177.159C325.487 177.785 343.506 172.662 355.196 154.437Z" stroke="black" stroke-width="4.62688"/>
<path d="M154.454 275.912C121.94 234.86 88.7242 258.807 76.1807 275.912C84.5953 286.07 95.3645 297.795 112.177 298.633C124.746 299.26 142.765 294.137 154.454 275.912Z" stroke="black" stroke-width="4.62688"/>
<ellipse cx="115.813" cy="152.359" rx="16.9859" ry="16.4712" fill="#FF007F"/>
<ellipse cx="316.555" cy="276.922" rx="16.9859" ry="16.4712" fill="#FF007F"/>
<rect width="431.966" height="431.966" rx="66.7707" fill="white"/>
<path d="M113.901 328.02C97.0599 328.02 82.0158 325.342 68.7686 319.987C55.5918 314.561 45.2336 307.233 37.6939 298.002C30.2247 288.701 26.4901 278.202 26.4901 266.505C26.4901 257.556 28.6393 249.347 32.9376 241.878C37.2359 234.408 43.0492 228.208 50.3774 223.275C57.7762 218.272 66.0205 215.066 75.1103 213.657V211.966C63.2019 209.781 53.4426 204.25 45.8325 195.371C38.2929 186.493 34.523 176.099 34.523 164.191C34.523 152.917 37.9405 142.876 44.7755 134.068C51.681 125.26 61.088 118.319 72.9964 113.245C84.9753 108.172 98.6101 105.635 113.901 105.635C129.192 105.635 142.791 108.172 154.7 113.245C166.678 118.319 176.085 125.26 182.92 134.068C189.826 142.876 193.279 152.917 193.279 164.191C193.279 176.17 189.438 186.599 181.758 195.477C174.148 204.285 164.459 209.781 152.691 211.966V213.657C161.711 215.066 169.885 218.272 177.213 223.275C184.612 228.208 190.46 234.408 194.758 241.878C199.127 249.347 201.312 257.556 201.312 266.505C201.312 278.202 197.542 288.701 190.002 298.002C182.462 307.233 172.104 314.561 158.927 319.987C145.821 325.342 130.812 328.02 113.901 328.02ZM113.901 290.921C120.313 290.921 125.95 289.723 130.812 287.327C135.674 284.861 139.479 281.443 142.227 277.074C145.046 272.706 146.455 267.773 146.455 262.277C146.455 256.64 145.046 251.637 142.227 247.268C139.409 242.899 135.533 239.482 130.601 237.016C125.739 234.479 120.172 233.211 113.901 233.211C107.7 233.211 102.133 234.479 97.2008 237.016C92.2684 239.482 88.3928 242.899 85.5743 247.268C82.7557 251.637 81.3464 256.64 81.3464 262.277C81.3464 267.773 82.7205 272.706 85.4686 277.074C88.2871 281.373 92.1274 284.755 96.9895 287.221C101.922 289.688 107.559 290.921 113.901 290.921ZM113.901 196.323C119.397 196.323 124.259 195.195 128.487 192.94C132.785 190.685 136.132 187.55 138.528 183.533C140.994 179.517 142.227 174.972 142.227 169.899C142.227 164.825 140.994 160.351 138.528 156.475C136.132 152.6 132.82 149.57 128.593 147.385C124.365 145.13 119.468 144.003 113.901 144.003C108.405 144.003 103.507 145.13 99.2091 147.385C94.9108 149.57 91.5637 152.6 89.1679 156.475C86.7722 160.351 85.5743 164.825 85.5743 169.899C85.5743 174.972 86.7722 179.517 89.1679 183.533C91.6342 187.479 95.0165 190.615 99.3148 192.94C103.613 195.195 108.475 196.323 113.901 196.323ZM315.041 328.02C298.2 328.02 283.156 325.342 269.908 319.987C256.732 314.561 246.373 307.233 238.834 298.002C231.364 288.701 227.63 278.202 227.63 266.505C227.63 257.556 229.779 249.347 234.077 241.878C238.376 234.408 244.189 228.208 251.517 223.275C258.916 218.272 267.16 215.066 276.25 213.657V211.966C264.342 209.781 254.582 204.25 246.972 195.371C239.433 186.493 235.663 176.099 235.663 164.191C235.663 152.917 239.08 142.876 245.915 134.068C252.821 125.26 262.228 118.319 274.136 113.245C286.115 108.172 299.75 105.635 315.041 105.635C330.331 105.635 343.931 108.172 355.839 113.245C367.818 118.319 377.225 125.26 384.06 134.068C390.966 142.876 394.418 152.917 394.418 164.191C394.418 176.17 390.578 186.599 382.898 195.477C375.287 204.285 365.599 209.781 353.831 211.966V213.657C362.851 215.066 371.024 218.272 378.353 223.275C385.751 228.208 391.6 234.408 395.898 241.878C400.267 249.347 402.451 257.556 402.451 266.505C402.451 278.202 398.682 288.701 391.142 298.002C383.602 307.233 373.244 314.561 360.067 319.987C346.961 325.342 331.952 328.02 315.041 328.02ZM315.041 290.921C321.453 290.921 327.09 289.723 331.952 287.327C336.814 284.861 340.619 281.443 343.367 277.074C346.186 272.706 347.595 267.773 347.595 262.277C347.595 256.64 346.186 251.637 343.367 247.268C340.549 242.899 336.673 239.482 331.741 237.016C326.879 234.479 321.312 233.211 315.041 233.211C308.84 233.211 303.273 234.479 298.341 237.016C293.408 239.482 289.533 242.899 286.714 247.268C283.895 251.637 282.486 256.64 282.486 262.277C282.486 267.773 283.86 272.706 286.608 277.074C289.427 281.373 293.267 284.755 298.129 287.221C303.062 289.688 308.699 290.921 315.041 290.921ZM315.041 196.323C320.537 196.323 325.399 195.195 329.627 192.94C333.925 190.685 337.272 187.55 339.668 183.533C342.134 179.517 343.367 174.972 343.367 169.899C343.367 164.825 342.134 160.351 339.668 156.475C337.272 152.6 333.96 149.57 329.732 147.385C325.505 145.13 320.607 144.003 315.041 144.003C309.544 144.003 304.647 145.13 300.349 147.385C296.051 149.57 292.704 152.6 290.308 156.475C287.912 160.351 286.714 164.825 286.714 169.899C286.714 174.972 287.912 179.517 290.308 183.533C292.774 187.479 296.156 190.615 300.455 192.94C304.753 195.195 309.615 196.323 315.041 196.323Z" fill="#FF007F"/>
<ellipse cx="113.24" cy="164.198" rx="38.0896" ry="32.4276" fill="#FF007F"/>
<ellipse cx="113.24" cy="263.024" rx="38.0896" ry="32.4276" fill="#FF007F"/>
<ellipse cx="316.041" cy="171.404" rx="38.0896" ry="32.4276" fill="#FF007F"/>
<ellipse cx="315.011" cy="260.967" rx="38.0896" ry="32.4276" fill="#FF007F"/>
<path d="M154.454 161.976C121.94 120.925 88.7242 144.871 76.1807 161.976C84.5953 172.134 95.3645 183.859 112.177 184.698C124.746 185.324 142.765 180.201 154.454 161.976Z" fill="black" stroke="black" stroke-width="4.62688"/>
<path d="M355.196 266.646C322.681 225.595 289.465 249.541 276.922 266.646C285.336 276.804 296.106 288.529 312.919 289.368C325.487 289.994 343.506 284.871 355.196 266.646Z" fill="black" stroke="black" stroke-width="4.62688"/>
<path d="M154.454 259.44C121.94 218.389 88.7242 242.335 76.1807 259.44C84.5953 269.598 95.3645 281.323 112.177 282.162C124.746 282.788 142.765 277.665 154.454 259.44Z" stroke="black" stroke-width="4.62688"/>
<path d="M355.196 168.849C322.681 127.798 289.465 151.744 276.922 168.849C285.336 179.007 296.106 190.732 312.919 191.571C325.487 192.197 343.506 187.074 355.196 168.849Z" stroke="black" stroke-width="4.62688"/>
<path d="M355.196 154.437C322.681 113.386 289.465 137.332 276.922 154.437C285.336 164.595 296.106 176.32 312.919 177.159C325.487 177.785 343.506 172.662 355.196 154.437Z" stroke="black" stroke-width="4.62688"/>
<path d="M154.454 275.912C121.94 234.86 88.7242 258.807 76.1807 275.912C84.5953 286.07 95.3645 297.795 112.177 298.633C124.746 299.26 142.765 294.137 154.454 275.912Z" stroke="black" stroke-width="4.62688"/>
<ellipse cx="115.813" cy="152.359" rx="16.9859" ry="16.4712" fill="#FF007F"/>
<ellipse cx="316.555" cy="276.922" rx="16.9859" ry="16.4712" fill="#FF007F"/>
</svg>
