<svg width="660" height="700" viewBox="0 0 660 700" fill="none" xmlns="http://www.w3.org/2000/svg">
<path d="M3.02148 75.2475C21.6516 51.2548 69.7775 17.6648 114.156 75.2475" stroke="white" stroke-width="6.48312"/>
<path d="M3 74.2465C21.6337 82.8956 69.7685 95.0044 114.156 74.2465" stroke="white" stroke-width="6.48312"/>
<path d="M3 74.1215C21.6337 99.5971 69.7685 135.263 114.156 74.1216" stroke="white" stroke-width="6.48312"/>
<line x1="22.7124" y1="11.0186" x2="35.1742" y2="49.3209" stroke="white" stroke-width="6.48312"/>
<line x1="64.2981" y1="3.1617" x2="64.5823" y2="43.4392" stroke="white" stroke-width="6.48312"/>
<line x1="103.36" y1="13.3855" x2="90.0399" y2="51.3978" stroke="white" stroke-width="6.48312"/>
<line y1="-3.24156" x2="41.5337" y2="-3.24156" transform="matrix(0.30004 -0.953927 -0.947765 -0.318968 19.6299 140.292)" stroke="white" stroke-width="6.48312"/>
<line y1="-3.24156" x2="41.6643" y2="-3.24156" transform="matrix(0.00682092 -0.999977 -0.999973 -0.00729832 61.0566 149.434)" stroke="white" stroke-width="6.48312"/>
<line y1="-3.24156" x2="41.515" y2="-3.24156" transform="matrix(-0.320849 -0.94713 -0.940145 0.340775 100.301 139.991)" stroke="white" stroke-width="6.48312"/>
<path d="M139.951 253.045C158.581 229.053 206.707 195.463 251.086 253.045" stroke="#FF007F" stroke-width="6.48312"/>
<path d="M139.932 252.045C158.565 260.694 206.7 272.803 251.087 252.045" stroke="#FF007F" stroke-width="6.48312"/>
<path d="M139.932 251.92C158.565 277.396 206.7 313.062 251.087 251.92" stroke="#FF007F" stroke-width="6.48312"/>
<line x1="159.641" y1="188.817" x2="172.103" y2="227.12" stroke="#FF007F" stroke-width="6.48312"/>
<line x1="201.231" y1="180.962" x2="201.515" y2="221.24" stroke="#FF007F" stroke-width="6.48312"/>
<line x1="240.292" y1="191.184" x2="226.972" y2="229.197" stroke="#FF007F" stroke-width="6.48312"/>
<line y1="-3.24156" x2="41.5337" y2="-3.24156" transform="matrix(0.30004 -0.953927 -0.947765 -0.318968 156.559 318.091)" stroke="#FF007F" stroke-width="6.48312"/>
<line y1="-3.24156" x2="41.6643" y2="-3.24156" transform="matrix(0.00682092 -0.999977 -0.999973 -0.00729832 197.989 327.231)" stroke="#FF007F" stroke-width="6.48312"/>
<line y1="-3.24156" x2="41.515" y2="-3.24156" transform="matrix(-0.320849 -0.94713 -0.940145 0.340775 237.232 317.79)" stroke="#FF007F" stroke-width="6.48312"/>
<path d="M279.835 436.294C298.465 412.302 346.591 378.712 390.97 436.294" stroke="#FF007F" stroke-width="6.48312"/>
<path d="M279.816 435.293C298.45 443.942 346.585 456.051 390.972 435.293" stroke="#FF007F" stroke-width="6.48312"/>
<path d="M279.816 435.168C298.45 460.644 346.585 496.31 390.972 435.168" stroke="#FF007F" stroke-width="6.48312"/>
<line x1="299.527" y1="372.064" x2="311.989" y2="410.367" stroke="#FF007F" stroke-width="6.48312"/>
<line x1="341.115" y1="364.21" x2="341.399" y2="404.487" stroke="#FF007F" stroke-width="6.48312"/>
<line x1="380.175" y1="374.431" x2="366.855" y2="412.444" stroke="#FF007F" stroke-width="6.48312"/>
<line y1="-3.24156" x2="41.5337" y2="-3.24156" transform="matrix(0.30004 -0.953927 -0.947765 -0.318968 296.444 501.339)" stroke="#FF007F" stroke-width="6.48312"/>
<line y1="-3.24156" x2="41.6643" y2="-3.24156" transform="matrix(0.00682092 -0.999977 -0.999973 -0.00729832 337.873 510.479)" stroke="#FF007F" stroke-width="6.48312"/>
<line y1="-3.24156" x2="41.515" y2="-3.24156" transform="matrix(-0.320849 -0.94713 -0.940145 0.340775 377.116 501.039)" stroke="#FF007F" stroke-width="6.48312"/>
<path d="M545.615 248.383C564.245 224.39 612.371 190.801 656.75 248.383" stroke="#FF007F" stroke-width="6.48312"/>
<path d="M545.594 247.382C564.227 256.031 612.362 268.14 656.75 247.382" stroke="#FF007F" stroke-width="6.48312"/>
<path d="M545.594 247.258C564.227 272.734 612.362 308.4 656.75 247.258" stroke="#FF007F" stroke-width="6.48312"/>
<line x1="565.307" y1="184.153" x2="577.769" y2="222.456" stroke="#FF007F" stroke-width="6.48312"/>
<line x1="606.894" y1="176.298" x2="607.178" y2="216.576" stroke="#FF007F" stroke-width="6.48312"/>
<line x1="645.956" y1="186.522" x2="632.636" y2="224.535" stroke="#FF007F" stroke-width="6.48312"/>
<line y1="-3.24156" x2="41.5337" y2="-3.24156" transform="matrix(0.30004 -0.953927 -0.947765 -0.318968 562.225 313.429)" stroke="#FF007F" stroke-width="6.48312"/>
<line y1="-3.24156" x2="41.6643" y2="-3.24156" transform="matrix(0.00682092 -0.999977 -0.999973 -0.00729832 603.652 322.569)" stroke="#FF007F" stroke-width="6.48312"/>
<line y1="-3.24156" x2="41.515" y2="-3.24156" transform="matrix(-0.320849 -0.94713 -0.940145 0.340775 642.896 313.128)" stroke="#FF007F" stroke-width="6.48312"/>
<path d="M411.482 73.063C430.113 49.0702 478.238 15.4802 522.617 73.0629" stroke="#FF007F" stroke-width="6.48312"/>
<path d="M411.462 72.0619C430.096 80.711 478.23 92.8198 522.618 72.0619" stroke="#FF007F" stroke-width="6.48312"/>
<path d="M411.462 71.9369C430.096 97.4125 478.23 133.078 522.618 71.937" stroke="#FF007F" stroke-width="6.48312"/>
<line x1="431.174" y1="8.83303" x2="443.636" y2="47.1353" stroke="#FF007F" stroke-width="6.48312"/>
<line x1="472.761" y1="0.977129" x2="473.045" y2="41.2547" stroke="#FF007F" stroke-width="6.48312"/>
<line x1="511.822" y1="11.1989" x2="498.502" y2="49.2113" stroke="#FF007F" stroke-width="6.48312"/>
<line y1="-3.24156" x2="41.5337" y2="-3.24156" transform="matrix(0.30004 -0.953927 -0.947765 -0.318968 428.092 138.107)" stroke="#FF007F" stroke-width="6.48312"/>
<line y1="-3.24156" x2="41.6643" y2="-3.24156" transform="matrix(0.00682092 -0.999977 -0.999973 -0.00729832 469.52 147.246)" stroke="#FF007F" stroke-width="6.48312"/>
<line y1="-3.24156" x2="41.515" y2="-3.24156" transform="matrix(-0.320849 -0.94713 -0.940145 0.340775 508.763 137.807)" stroke="#FF007F" stroke-width="6.48312"/>
<path d="M274.682 75.2475C293.312 51.2548 341.438 17.6648 385.817 75.2475" stroke="#FF007F" stroke-width="6.48312"/>
<path d="M274.66 74.1215C293.294 99.5971 341.429 135.263 385.816 74.1216" stroke="#FF007F" stroke-width="6.48312"/>
<line x1="294.373" y1="11.0186" x2="306.834" y2="49.3209" stroke="#FF007F" stroke-width="6.48312"/>
<line x1="335.96" y1="3.1617" x2="336.244" y2="43.4392" stroke="#FF007F" stroke-width="6.48312"/>
<line x1="375.021" y1="13.3855" x2="361.701" y2="51.3978" stroke="#FF007F" stroke-width="6.48312"/>
<path d="M5.50781 253.979C24.138 229.986 72.2638 196.396 116.643 253.979" stroke="#FF007F" stroke-width="6.48312"/>
<path d="M5.48633 252.855C24.12 278.33 72.2548 313.996 116.642 252.855" stroke="#FF007F" stroke-width="6.48312"/>
<line x1="25.1987" y1="189.749" x2="37.6605" y2="228.051" stroke="#FF007F" stroke-width="6.48312"/>
<line x1="66.7864" y1="181.893" x2="67.0706" y2="222.171" stroke="#FF007F" stroke-width="6.48312"/>
<line x1="105.848" y1="192.117" x2="92.5282" y2="230.129" stroke="#FF007F" stroke-width="6.48312"/>
<path d="M411.482 248.383C430.113 224.39 478.238 190.801 522.617 248.383" stroke="white" stroke-width="6.48312"/>
<path d="M411.462 247.258C430.096 272.734 478.23 308.4 522.618 247.258" stroke="white" stroke-width="6.48312"/>
<line x1="431.174" y1="184.153" x2="443.636" y2="222.456" stroke="white" stroke-width="6.48312"/>
<line x1="472.761" y1="176.298" x2="473.045" y2="216.576" stroke="white" stroke-width="6.48312"/>
<line x1="511.822" y1="186.522" x2="498.502" y2="224.535" stroke="white" stroke-width="6.48312"/>
<path d="M545.615 436.138C564.245 412.145 612.371 378.555 656.75 436.138" stroke="#FF007F" stroke-width="6.48312"/>
<path d="M545.594 435.013C564.227 460.489 612.362 496.155 656.75 435.013" stroke="#FF007F" stroke-width="6.48312"/>
<line x1="565.307" y1="371.911" x2="577.769" y2="410.213" stroke="#FF007F" stroke-width="6.48312"/>
<line x1="606.894" y1="364.053" x2="607.178" y2="404.331" stroke="#FF007F" stroke-width="6.48312"/>
<line x1="645.956" y1="374.277" x2="632.636" y2="412.289" stroke="#FF007F" stroke-width="6.48312"/>
<path d="M136.999 445.309C155.629 421.316 203.755 387.726 248.134 445.309" stroke="white" stroke-width="6.48312"/>
<path d="M136.978 444.183C155.611 469.659 203.746 505.324 248.133 444.183" stroke="white" stroke-width="6.48312"/>
<line x1="156.691" y1="381.08" x2="169.153" y2="419.382" stroke="white" stroke-width="6.48312"/>
<line x1="198.277" y1="373.223" x2="198.561" y2="413.501" stroke="white" stroke-width="6.48312"/>
<line x1="237.338" y1="383.445" x2="224.018" y2="421.457" stroke="white" stroke-width="6.48312"/>
<path d="M139.873 75.2475C158.503 51.2548 206.629 17.6648 251.008 75.2475" stroke="#FF007F" stroke-width="6.48312"/>
<path d="M139.852 74.1215C158.485 99.5971 206.62 135.263 251.007 74.1216" stroke="#FF007F" stroke-width="6.48312"/>
<line y1="-3.24156" x2="41.5337" y2="-3.24156" transform="matrix(0.30004 -0.953927 -0.947765 -0.318968 156.48 140.292)" stroke="#FF007F" stroke-width="6.48312"/>
<line y1="-3.24156" x2="41.6643" y2="-3.24156" transform="matrix(0.00682092 -0.999977 -0.999973 -0.00729832 197.909 149.434)" stroke="#FF007F" stroke-width="6.48312"/>
<line y1="-3.24156" x2="41.515" y2="-3.24156" transform="matrix(-0.320849 -0.94713 -0.940145 0.340775 237.153 139.991)" stroke="#FF007F" stroke-width="6.48312"/>
<path d="M277.35 248.528C295.98 224.535 344.106 190.945 388.485 248.528" stroke="#FF007F" stroke-width="6.48312"/>
<path d="M277.328 247.402C295.962 272.877 344.097 308.543 388.484 247.402" stroke="#FF007F" stroke-width="6.48312"/>
<line y1="-3.24156" x2="41.5337" y2="-3.24156" transform="matrix(0.30004 -0.953927 -0.947765 -0.318968 293.958 313.572)" stroke="#FF007F" stroke-width="6.48312"/>
<line y1="-3.24156" x2="41.6643" y2="-3.24156" transform="matrix(0.00682092 -0.999977 -0.999973 -0.00729832 335.386 322.713)" stroke="#FF007F" stroke-width="6.48312"/>
<line y1="-3.24156" x2="41.515" y2="-3.24156" transform="matrix(-0.320849 -0.94713 -0.940145 0.340775 374.63 313.271)" stroke="#FF007F" stroke-width="6.48312"/>
<path d="M416.611 436.283C435.241 412.29 483.367 378.7 527.746 436.283" stroke="#FF007F" stroke-width="6.48312"/>
<path d="M416.592 435.157C435.225 460.632 483.36 496.298 527.748 435.157" stroke="#FF007F" stroke-width="6.48312"/>
<line y1="-3.24156" x2="41.5337" y2="-3.24156" transform="matrix(0.30004 -0.953927 -0.947765 -0.318968 433.219 501.328)" stroke="#FF007F" stroke-width="6.48312"/>
<line y1="-3.24156" x2="41.6643" y2="-3.24156" transform="matrix(0.00682092 -0.999977 -0.999973 -0.00729832 474.649 510.467)" stroke="#FF007F" stroke-width="6.48312"/>
<line y1="-3.24156" x2="41.515" y2="-3.24156" transform="matrix(-0.320849 -0.94713 -0.940145 0.340775 513.893 501.026)" stroke="#FF007F" stroke-width="6.48312"/>
<path d="M5.50781 444.521C24.138 420.528 72.2638 386.938 116.643 444.521" stroke="#FF007F" stroke-width="6.48312"/>
<path d="M5.48633 443.395C24.12 468.871 72.2548 504.536 116.642 443.395" stroke="#FF007F" stroke-width="6.48312"/>
<line y1="-3.24156" x2="41.5337" y2="-3.24156" transform="matrix(0.30004 -0.953927 -0.947765 -0.318968 22.1162 509.565)" stroke="#FF007F" stroke-width="6.48312"/>
<line y1="-3.24156" x2="41.6643" y2="-3.24156" transform="matrix(0.00682092 -0.999977 -0.999973 -0.00729832 63.5449 518.704)" stroke="#FF007F" stroke-width="6.48312"/>
<line y1="-3.24156" x2="41.515" y2="-3.24156" transform="matrix(-0.320849 -0.94713 -0.940145 0.340775 102.789 509.265)" stroke="#FF007F" stroke-width="6.48312"/>
<path d="M546.236 73.0503C564.866 49.0575 612.992 15.4675 657.371 73.0502" stroke="#FF007F" stroke-width="6.48312"/>
<path d="M546.218 71.9242C564.851 97.3998 612.986 133.066 657.374 71.9243" stroke="#FF007F" stroke-width="6.48312"/>
<line y1="-3.24156" x2="41.5337" y2="-3.24156" transform="matrix(0.30004 -0.953927 -0.947765 -0.318968 562.845 138.095)" stroke="#FF007F" stroke-width="6.48312"/>
<line y1="-3.24156" x2="41.6643" y2="-3.24156" transform="matrix(0.00682092 -0.999977 -0.999973 -0.00729832 604.273 147.237)" stroke="#FF007F" stroke-width="6.48312"/>
<line y1="-3.24156" x2="41.515" y2="-3.24156" transform="matrix(-0.320849 -0.94713 -0.940145 0.340775 643.519 137.794)" stroke="#FF007F" stroke-width="6.48312"/>
<ellipse cx="194.774" cy="455.59" rx="25.0612" ry="24.4347" transform="rotate(-23.7136 194.774 455.59)" fill="white"/>
<ellipse cx="330.927" cy="68.1112" rx="25.0612" ry="24.4347" transform="rotate(-23.7136 330.927 68.1112)" fill="#FF007F"/>
<ellipse cx="618.622" cy="436.473" rx="25.0612" ry="24.4347" transform="rotate(-23.7136 618.622 436.473)" fill="#FF007F"/>
<ellipse cx="449.364" cy="249.028" rx="25.0612" ry="24.4347" transform="rotate(-23.7136 449.364 249.028)" fill="white"/>
<ellipse cx="67.0113" cy="261.617" rx="25.0612" ry="24.4347" transform="rotate(-23.7136 67.0113 261.617)" fill="#FF007F"/>
<ellipse cx="44.6119" cy="585.313" rx="32.2232" ry="32.2232" transform="rotate(-90 44.6119 585.313)" fill="white"/>
<ellipse cx="44.6119" cy="667.777" rx="32.2232" ry="32.2232" transform="rotate(-90 44.6119 667.777)" fill="white"/>
<ellipse cx="127.42" cy="585.313" rx="32.2232" ry="32.2232" transform="rotate(-90 127.42 585.313)" fill="white"/>
<ellipse cx="127.42" cy="667.777" rx="32.2232" ry="32.2232" transform="rotate(-90 127.42 667.777)" fill="#FF007F"/>
<ellipse cx="210.23" cy="585.313" rx="32.2232" ry="32.2232" transform="rotate(-90 210.23 585.313)" fill="white"/>
<ellipse cx="210.23" cy="667.777" rx="32.2232" ry="32.2232" transform="rotate(-90 210.23 667.777)" fill="white"/>
<ellipse cx="293.042" cy="585.313" rx="32.2232" ry="32.2232" transform="rotate(-90 293.042 585.313)" fill="#FF007F"/>
<ellipse cx="293.042" cy="667.777" rx="32.2232" ry="32.2232" transform="rotate(-90 293.042 667.777)" fill="white"/>
<ellipse cx="375.851" cy="585.313" rx="32.2232" ry="32.2232" transform="rotate(-90 375.851 585.313)" fill="white"/>
<ellipse cx="375.851" cy="667.777" rx="32.2232" ry="32.2232" transform="rotate(-90 375.851 667.777)" fill="white"/>
<ellipse cx="458.661" cy="585.313" rx="32.2232" ry="32.2232" transform="rotate(-90 458.661 585.313)" fill="white"/>
<ellipse cx="458.661" cy="667.777" rx="32.2232" ry="32.2232" transform="rotate(-90 458.661 667.777)" fill="#FF007F"/>
<ellipse cx="52.5534" cy="585.861" rx="10.7135" ry="10.5952" fill="black"/>
<path d="M67.4606 585.287C48.6142 561.492 29.3614 575.372 22.0908 585.287C26.9682 591.175 33.2103 597.971 42.9556 598.457C50.2408 598.82 60.6849 595.85 67.4606 585.287Z" stroke="black" stroke-width="1.79225"/>
<ellipse cx="44.9294" cy="665.206" rx="10.7135" ry="10.5952" fill="black"/>
<path d="M67.4576 667.749C48.6113 643.954 29.3585 657.834 22.0879 667.749C26.9652 673.636 33.2074 680.433 42.9527 680.919C50.2379 681.282 60.6819 678.312 67.4576 667.749Z" stroke="black" stroke-width="1.79225"/>
<ellipse cx="127.392" cy="665.206" rx="10.7135" ry="10.5952" fill="black"/>
<path d="M150.269 667.749C131.423 643.954 112.17 657.834 104.899 667.749C109.777 673.636 116.019 680.433 125.764 680.919C133.049 681.282 143.493 678.312 150.269 667.749Z" stroke="black" stroke-width="1.79225"/>
<ellipse cx="217.133" cy="667.63" rx="10.7135" ry="10.5952" fill="black"/>
<path d="M233.08 667.749C214.233 643.954 194.981 657.834 187.71 667.749C192.587 673.636 198.829 680.433 208.575 680.919C215.86 681.282 226.304 678.312 233.08 667.749Z" stroke="black" stroke-width="1.79225"/>
<ellipse cx="300.635" cy="668.324" rx="10.7135" ry="10.5952" fill="black"/>
<path d="M315.888 667.749C297.042 643.954 277.789 657.834 270.519 667.749C275.396 673.636 281.638 680.433 291.383 680.919C298.669 681.282 309.113 678.312 315.888 667.749Z" stroke="black" stroke-width="1.79225"/>
<ellipse cx="458.982" cy="665.206" rx="10.7135" ry="10.5952" fill="black"/>
<path d="M481.51 667.749C462.664 643.954 443.411 657.834 436.141 667.749C441.018 673.636 447.26 680.433 457.005 680.919C464.291 681.282 474.735 678.312 481.51 667.749Z" stroke="black" stroke-width="1.79225"/>
<ellipse cx="458.811" cy="587.893" rx="10.7135" ry="10.5952" fill="black"/>
<path d="M481.51 585.287C462.664 561.492 443.411 575.372 436.141 585.287C441.018 591.175 447.26 597.971 457.005 598.457C464.291 598.82 474.735 595.85 481.51 585.287Z" stroke="black" stroke-width="1.79225"/>
<ellipse cx="383.448" cy="585.861" rx="10.7135" ry="10.5952" fill="black"/>
<path d="M398.7 585.287C379.853 561.492 360.601 575.372 353.33 585.287C358.207 591.175 364.45 597.971 374.195 598.457C381.48 598.82 391.924 595.85 398.7 585.287Z" stroke="black" stroke-width="1.79225"/>
<ellipse cx="286.429" cy="585.861" rx="10.7135" ry="10.5952" fill="black"/>
<path d="M315.888 585.287C297.042 561.492 277.789 575.372 270.519 585.287C275.396 591.175 281.638 597.971 291.383 598.457C298.669 598.82 309.113 595.85 315.888 585.287Z" stroke="black" stroke-width="1.79225"/>
<ellipse cx="210.381" cy="587.893" rx="10.7135" ry="10.5952" fill="black"/>
<path d="M233.08 585.287C214.233 561.492 194.981 575.372 187.71 585.287C192.587 591.175 198.829 597.971 208.575 598.457C215.86 598.82 226.304 595.85 233.08 585.287Z" stroke="black" stroke-width="1.79225"/>
<ellipse cx="134.67" cy="585.168" rx="10.7135" ry="10.5952" fill="black"/>
<path d="M150.268 585.287C131.422 561.492 112.169 575.372 104.898 585.287C109.776 591.175 116.018 597.971 125.763 598.457C133.048 598.82 143.492 595.85 150.268 585.287Z" stroke="black" stroke-width="1.79225"/>
<ellipse cx="376.172" cy="665.206" rx="10.7135" ry="10.5952" fill="black"/>
<path d="M398.7 667.749C379.853 643.954 360.601 657.834 353.33 667.749C358.207 673.636 364.45 680.433 374.195 680.919C381.48 681.282 391.924 678.312 398.7 667.749Z" stroke="black" stroke-width="1.79225"/>
<path d="M34.9083 636.939C40.279 629.49 38.2575 619.326 36.4673 615.284L37.6802 612.165C43.224 610.375 56.1476 610.988 51.7126 615.977C47.2776 620.967 51.6551 633.013 53.965 638.499C48.5945 642.021 29.5335 644.394 34.9083 636.939Z" fill="white"/>
<path d="M200.781 636.99C206.152 629.541 204.131 619.377 202.34 615.335L203.553 612.216C209.097 610.426 222.021 611.039 217.586 616.028C213.151 621.017 217.528 633.063 219.838 638.55C214.468 642.072 195.407 644.445 200.781 636.99Z" fill="white"/>
<path d="M366.403 636.99C371.774 629.541 369.753 619.377 367.962 615.335L369.175 612.216C374.719 610.426 387.643 611.039 383.208 616.028C378.773 621.017 383.15 633.063 385.46 638.55C380.09 642.072 361.029 644.445 366.403 636.99Z" fill="white"/>
<path d="M406.738 578.29C414.187 583.661 424.351 581.639 428.393 579.849L431.511 581.062C433.302 586.606 432.689 599.529 427.7 595.094C422.71 590.659 410.664 595.037 405.178 597.347C401.655 591.976 399.283 572.915 406.738 578.29Z" fill="white"/>
<path d="M323.928 658.673C331.377 664.044 341.541 662.022 345.583 660.232L348.702 661.445C350.492 666.989 349.879 679.912 344.89 675.477C339.901 671.042 327.854 675.42 322.368 677.73C318.846 672.359 316.473 653.298 323.928 658.673Z" fill="white"/>
<path d="M241.12 658.673C248.569 664.044 258.733 662.022 262.775 660.232L265.893 661.445C267.683 666.989 267.071 679.912 262.081 675.477C257.092 671.042 245.046 675.42 239.56 677.73C236.037 672.359 233.665 653.298 241.12 658.673Z" fill="white"/>
<path d="M159.001 576.211C166.45 581.582 176.614 579.56 180.657 577.77L183.775 578.983C185.565 584.527 184.953 597.45 179.963 593.015C174.974 588.58 162.928 592.958 157.442 595.268C153.919 589.897 151.547 570.836 159.001 576.211Z" fill="white"/>
<path d="M76.1918 576.211C83.6408 581.582 93.8048 579.56 97.8471 577.77L100.965 578.983C102.756 584.527 102.143 597.45 97.1537 593.015C92.1643 588.58 80.1182 592.958 74.6321 595.268C71.1095 589.897 68.7371 570.836 76.1918 576.211Z" fill="white"/>
<ellipse cx="541.249" cy="585.313" rx="32.2232" ry="32.2232" transform="rotate(-90 541.249 585.313)" fill="white"/>
<ellipse cx="541.249" cy="667.777" rx="32.2232" ry="32.2232" transform="rotate(-90 541.249 667.777)" fill="white"/>
<ellipse cx="624.059" cy="585.313" rx="32.2232" ry="32.2232" transform="rotate(-90 624.059 585.313)" fill="white"/>
<ellipse cx="624.059" cy="667.777" rx="32.2232" ry="32.2232" transform="rotate(-90 624.059 667.777)" fill="#FF007F"/>
<ellipse cx="549.191" cy="585.86" rx="10.7135" ry="10.5952" fill="black"/>
<path d="M564.098 585.286C545.252 561.491 525.999 575.371 518.729 585.286C523.606 591.174 529.848 597.97 539.593 598.456C546.878 598.819 557.323 595.849 564.098 585.286Z" stroke="black" stroke-width="1.79225"/>
<ellipse cx="541.568" cy="665.206" rx="10.7135" ry="10.5952" fill="black"/>
<path d="M564.096 667.749C545.25 643.954 525.997 657.834 518.727 667.749C523.604 673.636 529.846 680.433 539.591 680.919C546.877 681.282 557.321 678.312 564.096 667.749Z" stroke="black" stroke-width="1.79225"/>
<ellipse cx="624.03" cy="665.206" rx="10.7135" ry="10.5952" fill="black"/>
<path d="M646.906 667.749C628.06 643.954 608.807 657.834 601.536 667.749C606.413 673.636 612.656 680.433 622.401 680.919C629.686 681.282 640.13 678.312 646.906 667.749Z" stroke="black" stroke-width="1.79225"/>
<ellipse cx="631.307" cy="585.168" rx="10.7135" ry="10.5952" fill="black"/>
<path d="M646.906 585.287C628.06 561.492 608.807 575.372 601.536 585.287C606.413 591.175 612.656 597.971 622.401 598.457C629.686 598.82 640.13 595.85 646.906 585.287Z" stroke="black" stroke-width="1.79225"/>
<path d="M531.547 636.939C536.918 629.49 534.896 619.326 533.106 615.284L534.319 612.165C539.863 610.375 552.786 610.988 548.351 615.977C543.916 620.967 548.294 633.013 550.604 638.499C545.233 642.021 526.172 644.394 531.547 636.939Z" fill="white"/>
<path d="M489.626 577.092C497.075 582.463 507.239 580.441 511.282 578.651L514.4 579.864C516.19 585.408 515.578 598.331 510.588 593.896C505.599 589.461 493.553 593.839 488.067 596.149C484.544 590.778 482.172 571.717 489.626 577.092Z" fill="white"/>
<path d="M572.831 576.211C580.28 581.582 590.444 579.56 594.487 577.77L597.605 578.983C599.395 584.527 598.783 597.45 593.793 593.015C588.804 588.58 576.758 592.958 571.272 595.268C567.749 589.897 565.377 570.836 572.831 576.211Z" fill="white"/>
</svg>
