<svg width="1127" height="436" viewBox="0 0 1127 436" fill="none" xmlns="http://www.w3.org/2000/svg">
<g clip-path="url(#clip0_333_15789)">
<rect width="1128.24" height="435.805" transform="translate(-0.788086)" fill="black"/>
<path d="M406.973 236.652C458.222 170.65 590.611 78.2482 712.692 236.652" stroke="#FF007F" stroke-width="7.45239"/>
<path d="M406.912 233.901C458.171 257.694 590.585 291.004 712.689 233.901" stroke="#FF007F" stroke-width="7.45239"/>
<path d="M406.912 233.555C458.171 303.635 590.585 401.748 712.689 233.555" stroke="#FF007F" stroke-width="7.45239"/>
<line x1="456.205" y1="61.5703" x2="490.486" y2="166.936" stroke="#FF007F" stroke-width="7.45239"/>
<path d="M564.858 37.6086L564.859 147.401" stroke="#FF007F" stroke-width="7.45239"/>
<line x1="672.608" y1="63.9754" x2="635.966" y2="168.543" stroke="#FF007F" stroke-width="7.45239"/>
<path d="M474.338 431.224L550.39 329.298H580.184L644.868 431.224H474.338Z" fill="white"/>
<path d="M696.029 431.097L626.001 315.04L654.56 298.576L897.898 431.097H696.029Z" fill="#FF007F"/>
<path d="M432.116 431.226L504.521 315.334L473.371 302.643L231.287 431.226H432.116Z" fill="#FF007F"/>
<path d="M1042.38 430.833L683.288 274.024L702.497 252.462L1127.45 275.984V430.833H1042.38Z" fill="white"/>
<path d="M83.5227 432.792L441.015 277.159L420.404 255.598L-0.794708 278.964V432.792H83.5227Z" fill="white"/>
<path d="M1128.62 179.547L704.456 220.317L686.423 201.108L1128.62 27.834V179.547Z" fill="#FF007F"/>
<path d="M-0.0050354 180.294L416.715 219.925L433.964 201.5L-0.0050354 31.3621V180.294Z" fill="#FF007F"/>
<path d="M1005.53 -0.391913L675.057 190.915L656.24 176.41L748.366 -0.783936L1005.53 -0.391913Z" fill="white"/>
<path d="M130.927 -1.18306L454.737 185.427L473.946 172.49L383.764 -1.56787L130.927 -1.18306Z" fill="white"/>
</g>
<defs>
<clipPath id="clip0_333_15789">
<rect width="1128.24" height="435.805" fill="white" transform="translate(-0.788086)"/>
</clipPath>
</defs>
</svg>
